<svg id="svg" xmlns="http://www.w3.org/2000/svg" xmlns:xlink="http://www.w3.org/1999/xlink" width="400" height="400" viewBox="0, 0, 400,400"><g id="svgg"><path id="path0" d="M129.423 22.089 C 128.555 23.328,128.629 24.320,130.015 29.996 C 132.899 41.808,131.690 45.228,123.068 49.641 C 120.831 50.786,118.010 52.387,116.800 53.197 C 115.590 54.008,112.980 55.622,111.000 56.783 C 109.020 57.944,105.870 60.014,104.000 61.383 C 102.130 62.752,98.890 64.918,96.800 66.195 C 93.428 68.256,91.581 69.941,80.395 81.159 L 67.790 93.800 61.945 102.600 C 52.751 116.440,51.123 119.068,48.437 124.400 C 43.960 133.284,37.723 149.999,36.268 157.010 C 35.721 159.645,34.722 163.651,34.048 165.914 C 30.188 178.871,30.160 225.439,34.005 237.375 C 34.709 239.561,35.717 243.431,36.244 245.975 C 38.388 256.321,47.055 276.601,54.922 289.677 C 55.890 291.285,57.336 293.860,58.138 295.400 C 58.944 296.951,61.195 300.026,63.181 302.291 C 65.154 304.542,68.911 309.222,71.529 312.691 C 76.982 319.917,81.845 324.801,89.164 330.401 C 91.895 332.491,95.945 335.698,98.164 337.530 C 100.384 339.361,103.820 341.864,105.800 343.092 C 107.780 344.321,110.750 346.266,112.400 347.415 C 116.838 350.505,133.486 358.798,137.800 360.068 C 139.780 360.650,142.736 361.611,144.369 362.202 C 149.942 364.218,151.361 362.739,151.089 355.199 C 150.849 348.559,150.178 347.542,144.486 345.185 C 129.854 339.127,112.028 328.698,103.971 321.481 C 92.795 311.471,75.912 293.357,73.728 289.031 C 73.386 288.354,71.434 285.280,69.392 282.200 C 61.316 270.024,52.479 248.771,50.421 236.577 C 49.977 233.950,49.089 229.820,48.446 227.400 C 45.386 215.877,45.561 185.921,48.755 174.564 C 49.430 172.164,50.250 168.364,50.578 166.120 C 50.943 163.616,51.727 160.606,52.606 158.330 C 53.394 156.290,54.494 152.996,55.051 151.010 C 57.478 142.359,68.380 120.675,73.755 113.809 C 74.440 112.934,75.966 111.134,77.146 109.809 C 78.327 108.484,80.573 105.510,82.139 103.200 C 85.376 98.423,95.994 87.470,100.364 84.400 C 104.066 81.799,108.299 78.543,111.452 75.872 C 115.046 72.827,126.138 66.152,128.474 65.628 C 133.274 64.553,135.383 66.836,136.974 74.828 C 139.446 87.249,142.355 87.379,154.991 75.633 C 157.186 73.592,161.236 70.421,163.991 68.585 C 166.746 66.749,171.250 63.227,174.000 60.758 C 176.807 58.239,181.228 54.813,184.080 52.947 C 192.493 47.442,192.437 46.744,183.265 42.825 C 180.110 41.477,176.284 39.747,174.762 38.981 C 173.241 38.215,170.242 36.891,168.098 36.039 C 160.595 33.057,155.342 30.831,148.200 27.606 C 134.994 21.643,130.633 20.361,129.423 22.089 M250.517 41.071 C 249.623 42.435,249.290 49.365,249.993 51.974 C 250.641 54.382,252.089 55.601,256.692 57.618 C 269.104 63.057,281.375 69.743,287.800 74.568 C 290.220 76.385,294.090 79.232,296.400 80.895 C 306.014 87.813,317.006 99.095,322.614 107.799 C 323.889 109.779,326.074 112.801,327.469 114.515 C 328.864 116.228,330.658 118.929,331.456 120.515 C 332.254 122.102,333.541 124.390,334.315 125.600 C 337.549 130.656,344.800 145.438,344.800 146.975 C 344.800 147.097,345.704 149.641,346.810 152.627 C 348.150 156.246,349.083 159.626,349.611 162.767 C 350.046 165.359,350.771 168.541,351.222 169.839 C 355.123 181.065,355.461 219.562,351.764 231.723 C 351.216 233.525,350.406 236.890,349.962 239.200 C 346.840 255.473,333.668 282.607,322.938 294.871 C 321.143 296.922,318.360 300.310,316.753 302.400 C 312.884 307.432,305.907 314.385,301.200 317.903 C 299.110 319.464,295.780 322.192,293.800 323.965 C 290.427 326.984,288.653 328.234,280.600 333.262 C 272.850 338.100,261.296 343.201,258.092 343.199 C 253.415 343.195,251.379 339.714,250.416 330.078 C 249.705 322.965,248.439 322.078,243.924 325.529 C 242.536 326.590,239.482 328.743,237.137 330.313 C 234.792 331.883,230.874 334.963,228.429 337.156 C 224.268 340.890,222.897 341.906,216.936 345.678 C 215.651 346.490,212.710 348.921,210.400 351.080 C 208.090 353.239,205.030 355.883,203.600 356.956 C 197.152 361.795,198.477 364.181,209.800 368.123 C 214.613 369.798,224.041 373.861,231.983 377.682 C 235.182 379.221,239.240 380.977,241.000 381.585 C 242.760 382.193,246.719 383.724,249.797 384.987 C 258.767 388.669,259.388 388.416,259.077 381.200 C 258.960 378.483,258.519 375.126,258.000 373.000 C 256.205 365.649,258.135 362.265,265.990 358.993 C 275.590 354.994,292.761 345.486,298.200 341.158 C 300.180 339.582,303.870 336.899,306.400 335.196 C 313.223 330.603,330.789 313.160,334.191 307.600 C 335.470 305.510,337.907 302.000,339.606 299.800 C 345.807 291.771,352.728 279.767,356.325 270.800 C 361.893 256.921,362.864 254.269,363.589 250.972 C 364.021 249.007,364.996 245.562,365.756 243.315 C 367.265 238.853,367.513 237.453,369.006 225.000 C 369.560 220.380,370.233 214.980,370.500 213.000 C 371.676 204.300,370.921 192.039,367.627 166.366 C 367.413 164.698,366.519 161.368,365.640 158.966 C 364.760 156.565,363.599 153.070,363.058 151.200 C 358.915 136.862,349.730 117.212,342.872 108.014 C 341.477 106.142,339.370 102.970,338.190 100.965 C 336.438 97.989,334.501 95.710,327.641 88.560 C 314.369 74.724,306.102 67.193,299.800 63.198 C 298.260 62.222,295.470 60.316,293.600 58.963 C 285.905 53.394,274.964 47.602,266.200 44.457 C 263.780 43.588,260.038 42.230,257.884 41.439 C 253.063 39.668,251.488 39.589,250.517 41.071 M195.644 96.958 C 194.067 97.832,193.631 99.122,193.600 103.000 C 193.484 117.682,191.945 119.803,179.396 122.577 C 172.719 124.053,172.365 124.180,167.212 126.941 C 157.510 132.141,152.245 138.962,147.716 152.200 L 145.800 157.800 145.804 163.800 L 145.808 169.800 147.762 176.200 C 150.618 185.553,152.082 188.041,158.259 194.039 C 165.298 200.874,179.643 209.225,188.735 211.782 C 196.811 214.052,207.661 219.421,213.139 223.857 C 220.199 229.573,224.403 241.210,222.161 248.827 C 218.553 261.085,210.895 266.782,197.600 267.101 C 180.790 267.504,169.660 259.738,167.774 246.289 C 167.053 241.149,166.057 240.768,153.667 240.896 L 143.533 241.000 142.321 242.357 L 141.109 243.714 141.274 248.757 C 141.577 258.011,147.876 269.557,155.586 274.990 C 164.072 280.971,171.327 284.203,179.232 285.524 C 188.693 287.105,190.328 289.189,190.763 300.218 C 191.081 308.279,191.693 309.195,196.853 309.327 C 201.498 309.446,202.090 308.481,202.454 300.200 C 202.953 288.846,204.287 287.077,213.525 285.529 C 232.330 282.377,246.231 268.521,250.047 249.125 C 252.373 237.299,244.938 217.648,235.146 209.745 C 230.276 205.813,218.512 199.434,211.764 197.064 C 194.835 191.121,187.747 187.430,181.445 181.279 C 175.725 175.695,173.662 171.461,173.319 164.600 C 172.337 144.930,193.146 133.091,210.603 143.389 C 215.337 146.182,218.162 150.220,221.348 158.746 C 223.775 165.243,223.915 165.301,236.872 165.127 C 249.946 164.952,250.212 164.691,247.581 154.641 C 244.278 142.027,239.358 134.468,231.142 129.386 C 224.565 125.317,222.674 124.439,217.836 123.209 C 206.040 120.210,204.396 118.229,204.028 106.581 C 203.780 98.740,203.465 97.585,201.353 96.782 C 199.921 96.238,196.769 96.335,195.644 96.958 " stroke="none" fill="#101010" fill-rule="evenodd"></path><path id="path1" d="M0.000 200.000 L 0.000 400.000 200.000 400.000 L 400.000 400.000 400.000 200.000 L 400.000 0.000 200.000 0.000 L 0.000 0.000 0.000 200.000 M135.600 14.598 C 139.925 16.357,151.566 21.308,169.000 28.804 C 173.180 30.602,180.830 33.869,186.000 36.066 C 197.976 41.155,199.200 42.111,199.200 46.376 C 199.200 49.877,197.025 52.338,188.200 58.820 C 185.120 61.082,180.260 64.859,177.400 67.212 C 174.540 69.565,170.130 72.981,167.600 74.802 C 165.070 76.623,161.110 79.684,158.800 81.603 C 138.964 98.086,134.702 98.314,131.612 83.057 C 129.539 72.825,129.046 72.634,120.015 78.551 C 105.439 88.102,92.321 100.893,79.558 118.003 C 75.447 123.514,68.556 136.200,64.875 145.033 C 33.330 220.745,70.302 308.074,146.733 338.381 C 157.558 342.673,158.465 343.948,158.725 355.229 C 159.120 372.411,155.889 374.252,137.380 367.390 C 96.985 352.416,61.696 320.556,42.065 281.336 C 18.648 234.554,16.971 179.698,37.482 131.400 C 52.929 95.027,81.528 64.102,118.085 44.245 C 124.273 40.883,124.407 40.399,122.360 28.816 C 119.569 13.016,122.902 9.437,135.600 14.598 M257.838 33.560 C 347.219 65.055,396.451 157.774,371.836 248.258 C 362.011 284.371,338.326 320.347,311.083 340.535 C 299.645 349.011,297.469 350.529,292.600 353.427 C 289.740 355.129,283.800 358.299,279.400 360.471 C 275.000 362.643,270.230 365.000,268.800 365.710 C 264.585 367.801,264.528 368.055,266.025 378.032 C 268.288 393.121,267.148 397.190,260.800 396.670 C 258.751 396.502,257.304 395.989,248.200 392.198 C 246.440 391.465,242.210 389.703,238.800 388.283 C 235.390 386.862,227.560 383.502,221.400 380.816 C 215.240 378.129,208.670 375.336,206.800 374.610 C 186.750 366.818,184.733 362.257,197.128 352.736 C 199.478 350.932,203.560 347.630,206.200 345.399 C 208.840 343.168,212.890 340.027,215.200 338.418 C 217.510 336.810,221.740 333.573,224.600 331.225 C 232.487 324.751,244.039 316.124,246.029 315.221 C 252.239 312.404,255.683 315.776,257.245 326.200 C 258.794 336.537,259.254 336.711,269.965 331.033 C 322.051 303.415,351.895 247.548,346.841 187.122 C 345.260 168.219,338.047 145.505,328.486 129.320 C 326.952 126.724,325.420 124.053,325.082 123.385 C 324.359 121.956,316.141 110.717,312.663 106.400 C 299.417 89.960,277.303 74.048,255.000 64.909 C 243.041 60.008,241.462 57.289,242.161 42.800 C 242.694 31.757,246.445 29.546,257.838 33.560 M202.759 88.809 C 209.867 89.731,211.301 92.135,211.598 103.619 C 211.863 113.876,211.861 113.872,220.000 116.173 C 236.198 120.751,248.860 133.178,253.653 149.200 C 257.411 161.763,256.731 168.675,251.474 171.364 L 249.187 172.533 236.293 172.567 C 218.061 172.614,217.298 172.251,214.652 162.289 C 211.570 150.686,204.542 145.515,194.065 147.144 C 184.936 148.563,181.020 153.438,181.007 163.400 C 180.992 174.885,186.241 179.599,208.662 188.235 C 240.417 200.466,252.583 212.373,256.235 234.799 C 260.709 262.274,245.010 285.127,216.800 292.201 C 210.060 293.891,209.600 294.498,209.600 301.714 C 209.600 314.032,207.387 316.600,196.771 316.600 C 185.289 316.600,183.252 314.144,183.212 300.260 L 183.200 295.920 181.900 294.627 C 180.848 293.581,179.876 293.160,176.800 292.418 C 149.944 285.943,133.857 268.348,133.811 245.400 C 133.789 234.118,135.636 233.065,155.092 233.274 C 171.504 233.451,172.478 233.967,174.443 243.531 C 176.777 254.893,183.992 260.381,196.600 260.385 C 208.297 260.389,215.916 253.054,215.073 242.600 C 214.270 232.631,207.790 226.384,192.300 220.645 C 190.155 219.850,186.645 218.554,184.500 217.763 C 152.799 206.086,137.653 187.429,138.916 161.612 C 140.044 138.552,154.126 121.775,177.718 115.383 C 185.959 113.150,185.687 113.551,185.986 103.200 C 186.366 90.052,189.778 87.124,202.759 88.809 " stroke="none" fill="#fafafa" fill-rule="evenodd"></path><path id="path2" d="M128.190 18.159 C 126.613 18.845,125.986 20.306,126.061 23.119 L 126.122 25.400 126.371 23.000 C 126.793 18.931,127.756 18.088,131.502 18.510 C 133.558 18.742,133.007 18.238,130.800 17.868 C 129.994 17.732,128.887 17.856,128.190 18.159 M137.633 20.565 C 137.955 20.883,142.154 22.379,142.304 22.230 C 142.387 22.146,141.446 21.701,140.213 21.239 C 138.027 20.421,137.294 20.230,137.633 20.565 M143.800 23.041 C 146.427 24.557,163.208 31.725,163.484 31.449 C 163.567 31.366,162.052 30.660,160.118 29.880 C 158.183 29.100,153.720 27.175,150.200 25.601 C 143.252 22.495,141.952 21.975,143.800 23.041 M126.880 28.200 C 126.880 28.640,127.024 29.450,127.200 30.000 C 127.454 30.792,127.520 30.833,127.520 30.200 C 127.520 29.760,127.376 28.950,127.200 28.400 C 126.946 27.608,126.880 27.567,126.880 28.200 M127.672 31.600 C 127.660 31.930,127.891 33.370,128.185 34.800 C 128.480 36.230,128.722 36.860,128.722 36.200 C 128.723 34.959,127.713 30.534,127.672 31.600 M164.087 31.820 C 164.458 32.191,173.740 35.993,173.896 35.838 C 173.976 35.758,172.637 35.113,170.921 34.406 C 169.204 33.699,167.012 32.779,166.049 32.361 C 164.262 31.584,163.695 31.428,164.087 31.820 M175.800 36.882 C 177.982 38.038,187.447 42.166,189.310 42.775 C 195.632 44.842,194.561 48.584,185.968 54.455 C 183.336 56.253,178.605 59.913,175.454 62.587 C 172.304 65.262,167.943 68.680,165.764 70.184 C 161.388 73.202,159.272 74.873,154.800 78.846 C 142.198 90.040,138.696 90.291,135.950 80.200 C 135.351 78.000,134.848 76.470,134.832 76.800 C 134.773 77.983,136.839 84.968,137.622 86.236 C 139.958 90.015,144.595 88.047,155.551 78.626 C 158.273 76.286,162.862 72.684,165.750 70.623 C 168.637 68.561,173.233 64.969,175.961 62.640 C 178.690 60.311,183.100 56.886,185.761 55.031 C 193.017 49.971,194.543 48.073,193.453 45.466 C 192.834 43.984,191.997 43.514,184.000 40.165 C 181.030 38.920,177.751 37.474,176.713 36.951 C 174.381 35.776,173.598 35.717,175.800 36.882 M249.988 36.958 C 247.538 37.761,247.016 39.315,246.950 46.000 L 246.893 51.800 247.196 46.000 C 247.561 39.014,247.391 39.910,248.636 38.431 C 250.378 36.360,253.531 36.917,264.151 41.170 C 265.884 41.864,267.368 42.365,267.450 42.283 C 267.608 42.125,262.062 39.892,257.400 38.237 C 253.161 36.731,251.535 36.451,249.988 36.958 M128.607 39.495 C 128.082 42.993,126.316 45.061,122.026 47.202 C 118.451 48.986,106.942 55.974,102.571 59.015 C 100.575 60.404,97.335 62.619,95.371 63.937 C 86.822 69.676,68.050 88.964,60.890 99.365 C 53.084 110.706,43.955 126.000,44.993 126.000 C 45.103 126.000,46.097 124.199,47.201 121.997 C 50.834 114.759,62.228 97.352,67.229 91.400 C 70.963 86.956,90.551 67.729,93.214 65.893 C 94.416 65.064,97.839 62.696,100.821 60.631 C 106.680 56.572,117.889 49.675,122.001 47.599 C 125.507 45.830,126.724 44.866,127.808 43.000 C 128.645 41.559,129.586 37.600,129.091 37.600 C 128.981 37.600,128.763 38.453,128.607 39.495 M268.800 42.849 C 269.350 43.098,271.490 44.093,273.557 45.061 C 275.623 46.028,277.377 46.756,277.455 46.678 C 277.652 46.481,270.028 42.914,268.800 42.628 L 267.800 42.396 268.800 42.849 M279.800 47.872 C 287.312 51.757,303.054 62.104,308.600 66.802 C 320.492 76.875,335.816 92.991,340.678 100.536 C 342.118 102.771,344.153 105.770,345.201 107.200 C 347.310 110.077,349.768 114.377,354.461 123.400 C 356.178 126.700,357.586 129.262,357.591 129.093 C 357.628 127.837,348.326 110.929,345.216 106.600 C 343.951 104.840,341.929 101.870,340.722 100.000 C 335.861 92.469,318.695 74.576,307.600 65.477 C 301.463 60.443,279.778 46.721,278.116 46.819 C 277.942 46.829,278.700 47.303,279.800 47.872 M247.391 53.198 C 247.810 55.768,254.224 60.842,256.991 60.793 C 257.216 60.789,255.701 59.934,253.624 58.893 C 249.712 56.932,248.774 56.049,247.761 53.377 L 247.163 51.800 247.391 53.198 M262.363 63.216 C 265.093 64.531,267.388 65.545,267.464 65.469 C 267.638 65.296,258.267 60.796,257.766 60.812 C 257.565 60.818,259.633 61.900,262.363 63.216 M274.720 69.500 C 292.140 79.336,310.481 95.065,319.379 107.800 C 320.455 109.340,322.816 112.580,324.627 115.000 C 326.437 117.420,328.505 120.480,329.222 121.800 C 329.939 123.120,331.377 125.640,332.417 127.400 C 333.456 129.160,335.223 132.310,336.343 134.400 C 337.464 136.490,338.385 138.053,338.390 137.874 C 338.403 137.455,334.833 130.742,332.396 126.600 C 331.361 124.840,329.786 122.140,328.897 120.600 C 328.008 119.060,326.341 116.630,325.192 115.200 C 324.043 113.770,322.064 111.070,320.795 109.200 C 313.100 97.861,298.868 84.650,282.600 73.743 C 279.796 71.863,268.699 65.600,268.172 65.600 C 267.974 65.600,270.921 67.355,274.720 69.500 M127.734 68.578 C 125.621 69.234,117.163 74.350,113.667 77.088 C 112.200 78.236,108.480 81.100,105.400 83.452 C 98.500 88.721,88.072 99.013,83.991 104.581 C 82.386 106.771,79.707 110.218,78.037 112.241 C 74.992 115.929,69.146 124.952,66.834 129.532 C 64.997 133.171,65.355 133.078,67.343 129.400 C 71.330 122.023,75.507 115.655,79.351 111.093 C 80.507 109.722,82.783 106.800,84.409 104.600 C 88.116 99.583,98.583 89.069,103.600 85.322 C 105.690 83.761,109.195 81.040,111.388 79.275 C 118.517 73.538,126.672 68.800,129.418 68.800 C 131.944 68.800,133.123 69.974,134.065 73.426 C 134.658 75.601,134.772 75.812,134.594 74.400 C 133.989 69.621,131.413 67.436,127.734 68.578 M199.524 93.610 C 205.401 94.360,206.118 95.461,206.424 104.200 L 206.647 110.600 206.724 104.760 C 206.845 95.501,205.715 93.731,199.470 93.393 L 196.600 93.238 199.524 93.610 M193.559 94.508 C 191.905 95.613,190.785 97.716,190.848 99.600 C 190.890 100.869,190.924 100.823,191.212 99.110 C 191.458 97.653,192.839 94.834,193.327 94.794 C 194.106 94.730,196.378 93.630,195.759 93.618 C 195.297 93.608,194.307 94.009,193.559 94.508 M190.400 107.430 C 190.112 116.111,189.373 117.081,181.400 119.250 C 179.200 119.849,177.640 120.352,177.933 120.369 C 178.942 120.427,184.932 118.749,186.415 117.992 C 189.982 116.173,190.872 113.795,190.712 106.513 L 190.600 101.400 190.400 107.430 M206.853 111.800 C 206.727 116.085,210.989 119.367,218.800 121.001 C 221.216 121.506,219.937 120.928,216.671 120.038 C 210.172 118.269,208.061 116.534,207.218 112.269 C 206.939 110.861,206.882 110.787,206.853 111.800 M173.800 121.200 C 173.296 121.417,173.222 121.544,173.600 121.544 C 173.930 121.544,174.560 121.389,175.000 121.200 C 175.504 120.983,175.578 120.856,175.200 120.856 C 174.870 120.856,174.240 121.011,173.800 121.200 M223.029 122.344 C 233.538 126.492,240.774 133.111,246.483 143.800 C 247.306 145.340,247.984 146.459,247.989 146.287 C 248.025 145.230,242.730 136.514,240.108 133.315 C 236.878 129.371,223.671 121.133,220.708 121.214 C 220.429 121.221,221.473 121.730,223.029 122.344 M166.899 124.175 C 158.590 128.548,152.555 134.525,148.699 142.200 C 147.274 145.036,144.783 151.673,144.821 152.532 C 144.832 152.789,145.518 151.110,146.345 148.800 C 150.450 137.336,156.886 129.788,167.079 124.480 C 169.676 123.128,171.620 122.021,171.400 122.020 C 171.180 122.018,169.154 122.988,166.899 124.175 M43.265 129.017 C 42.595 130.488,42.723 130.802,43.447 129.465 C 43.786 128.840,43.988 128.254,43.896 128.163 C 43.805 128.071,43.521 128.456,43.265 129.017 M357.634 129.645 C 357.606 129.850,359.214 133.505,361.135 137.600 L 361.604 138.600 361.360 137.600 C 361.095 136.513,357.691 129.245,357.634 129.645 M41.255 133.855 C 40.565 135.548,40.066 136.999,40.146 137.079 C 40.226 137.159,40.856 135.839,41.545 134.145 C 42.235 132.452,42.734 131.001,42.654 130.921 C 42.574 130.841,41.944 132.161,41.255 133.855 M62.887 137.900 C 60.008 143.902,58.726 146.860,58.919 147.053 C 58.996 147.129,59.662 145.799,60.398 144.096 C 61.135 142.393,62.618 139.226,63.694 137.058 C 64.769 134.890,65.578 133.045,65.491 132.958 C 65.404 132.871,64.232 135.095,62.887 137.900 M38.648 140.648 C 38.076 142.349,37.676 143.809,37.760 143.893 C 37.844 143.977,38.380 142.654,38.952 140.952 C 39.524 139.251,39.924 137.791,39.840 137.707 C 39.756 137.623,39.220 138.946,38.648 140.648 M338.500 138.800 C 339.415 141.219,341.752 146.381,341.876 146.258 C 342.051 146.082,338.940 138.791,338.538 138.435 C 338.392 138.306,338.375 138.470,338.500 138.800 M362.021 140.223 C 362.010 140.456,362.803 142.796,363.785 145.423 C 364.766 148.050,365.566 149.930,365.563 149.600 C 365.556 148.886,362.052 139.609,362.021 140.223 M192.200 142.622 C 191.114 143.002,190.985 143.107,191.800 142.947 C 192.460 142.817,193.900 142.573,195.000 142.405 C 196.934 142.110,196.947 142.099,195.400 142.081 C 194.520 142.070,193.080 142.314,192.200 142.622 M199.536 142.430 C 209.627 143.740,214.847 148.475,218.826 159.932 C 221.586 167.878,221.368 167.770,234.999 167.923 C 247.007 168.059,248.396 167.883,250.201 165.999 C 251.511 164.632,252.024 161.054,251.291 158.400 C 250.990 157.309,250.948 157.711,251.104 160.220 C 251.529 167.076,250.497 167.579,235.985 167.591 C 221.508 167.603,222.101 167.933,218.391 157.800 C 214.767 147.903,207.084 141.785,198.616 142.051 C 197.309 142.092,197.486 142.164,199.536 142.430 M188.200 143.786 C 186.655 144.493,187.374 144.503,189.200 143.800 C 189.970 143.503,190.330 143.255,190.000 143.248 C 189.670 143.242,188.860 143.483,188.200 143.786 M36.844 145.644 C 36.598 146.351,36.466 147.000,36.552 147.085 C 36.638 147.171,36.909 146.662,37.156 145.956 C 37.402 145.249,37.534 144.600,37.448 144.515 C 37.362 144.429,37.091 144.938,36.844 145.644 M183.829 146.048 C 180.015 148.779,176.675 154.155,176.155 158.400 C 176.044 159.307,176.200 159.026,176.598 157.600 C 178.047 152.419,181.096 148.116,185.135 145.555 C 186.137 144.920,186.771 144.400,186.543 144.400 C 186.316 144.400,185.095 145.142,183.829 146.048 M342.254 147.600 C 342.389 148.150,342.745 149.140,343.045 149.800 C 343.484 150.764,343.543 150.803,343.346 150.000 C 343.211 149.450,342.855 148.460,342.555 147.800 C 342.116 146.836,342.057 146.797,342.254 147.600 M35.445 149.450 C 35.090 150.491,34.813 151.535,34.829 151.771 C 34.845 152.007,35.205 151.224,35.628 150.032 C 36.051 148.840,36.328 147.795,36.244 147.710 C 36.159 147.626,35.800 148.408,35.445 149.450 M57.628 150.203 C 57.173 151.678,56.815 153.090,56.833 153.342 C 56.850 153.594,57.291 152.456,57.813 150.813 C 58.334 149.171,58.692 147.758,58.608 147.675 C 58.524 147.591,58.083 148.729,57.628 150.203 M248.400 148.146 C 248.400 148.846,250.524 156.809,250.672 156.661 C 250.847 156.486,248.856 148.323,248.568 148.035 C 248.476 147.942,248.400 147.992,248.400 148.146 M365.858 151.600 C 366.149 153.375,368.409 160.524,368.615 160.319 C 368.747 160.186,368.122 158.043,366.074 151.600 L 365.629 150.200 365.858 151.600 M343.699 151.700 C 343.800 151.975,344.198 153.157,344.582 154.326 C 344.967 155.495,345.352 156.381,345.438 156.295 C 345.641 156.093,343.992 151.200,343.720 151.200 C 343.607 151.200,343.597 151.425,343.699 151.700 M144.051 154.962 C 143.803 155.948,143.615 157.080,143.633 157.477 C 143.652 157.875,143.924 157.137,144.238 155.838 C 144.552 154.539,144.741 153.407,144.656 153.323 C 144.572 153.238,144.300 153.976,144.051 154.962 M33.098 158.655 C 32.497 161.231,32.076 163.409,32.162 163.495 C 32.380 163.714,34.477 154.831,34.319 154.357 C 34.248 154.144,33.699 156.078,33.098 158.655 M54.413 160.224 C 53.726 162.367,53.242 164.408,53.336 164.760 C 53.479 165.296,53.515 165.287,53.554 164.700 C 53.579 164.315,54.133 162.343,54.784 160.318 C 55.436 158.292,55.899 156.566,55.815 156.481 C 55.730 156.397,55.099 158.081,54.413 160.224 M345.664 157.000 C 345.654 157.220,345.985 158.660,346.400 160.200 C 346.815 161.740,347.153 162.550,347.153 162.000 C 347.151 161.043,345.701 156.173,345.664 157.000 M143.358 163.800 C 143.358 166.880,143.421 168.087,143.497 166.482 C 143.573 164.878,143.573 162.358,143.496 160.882 C 143.419 159.407,143.357 160.720,143.358 163.800 M175.669 163.000 C 175.483 173.445,180.976 180.638,194.261 187.349 C 199.423 189.956,204.747 192.187,205.061 191.873 C 205.148 191.786,204.090 191.308,202.710 190.812 C 185.330 184.562,176.838 175.974,176.001 163.800 L 175.725 159.800 175.669 163.000 M368.856 161.200 C 368.856 161.530,369.011 162.160,369.200 162.600 C 369.417 163.104,369.544 163.178,369.544 162.800 C 369.544 162.470,369.389 161.840,369.200 161.400 C 368.983 160.896,368.856 160.822,368.856 161.200 M347.234 163.721 C 347.190 164.647,348.427 170.107,348.633 169.900 C 348.719 169.815,348.447 168.227,348.028 166.372 C 347.610 164.517,347.252 163.324,347.234 163.721 M31.071 166.494 C 30.702 167.963,30.416 169.397,30.436 169.682 C 30.456 169.967,30.812 168.940,31.226 167.400 C 31.641 165.860,31.927 164.425,31.861 164.212 C 31.795 163.999,31.440 165.026,31.071 166.494 M370.101 167.400 C 370.105 168.280,370.187 168.593,370.283 168.095 C 370.379 167.598,370.375 166.878,370.275 166.495 C 370.175 166.113,370.096 166.520,370.101 167.400 M370.501 170.600 C 370.505 171.480,370.587 171.793,370.683 171.295 C 370.779 170.798,370.775 170.078,370.675 169.695 C 370.575 169.313,370.496 169.720,370.501 170.600 M143.654 170.373 C 143.595 171.442,145.197 177.736,145.462 177.471 C 145.553 177.381,145.271 175.978,144.836 174.353 C 144.401 172.729,143.970 170.950,143.877 170.400 L 143.709 169.400 143.654 170.373 M30.093 171.600 C 30.093 172.370,30.175 172.685,30.276 172.300 C 30.376 171.915,30.376 171.285,30.276 170.900 C 30.175 170.515,30.093 170.830,30.093 171.600 M349.026 171.200 C 350.288 177.003,350.793 178.845,350.592 176.914 C 350.474 175.767,350.024 173.787,349.593 172.514 C 349.162 171.241,348.907 170.650,349.026 171.200 M50.846 175.882 C 49.873 179.894,49.199 184.349,49.253 186.400 C 49.273 187.170,49.540 185.849,49.845 183.465 C 50.151 181.081,50.770 177.685,51.221 175.919 C 51.672 174.152,51.964 172.630,51.869 172.536 C 51.775 172.442,51.315 173.948,50.846 175.882 M370.893 173.600 C 370.893 174.370,370.975 174.685,371.076 174.300 C 371.176 173.915,371.176 173.285,371.076 172.900 C 370.975 172.515,370.893 172.830,370.893 173.600 M29.714 175.000 C 29.717 176.100,29.795 176.503,29.887 175.895 C 29.979 175.286,29.977 174.386,29.882 173.895 C 29.787 173.403,29.711 173.900,29.714 175.000 M371.268 176.000 C 371.254 176.550,371.665 180.510,372.180 184.800 C 372.695 189.090,373.136 192.031,373.158 191.335 C 373.198 190.121,371.749 176.839,371.442 175.600 C 371.360 175.270,371.282 175.450,371.268 176.000 M29.018 181.218 C 28.860 183.444,28.817 185.350,28.921 185.454 C 29.025 185.559,29.241 183.824,29.400 181.600 C 29.559 179.376,29.603 177.470,29.497 177.364 C 29.392 177.258,29.176 178.993,29.018 181.218 M145.640 178.138 C 145.040 183.259,153.054 194.326,162.400 201.282 C 166.078 204.020,180.543 211.990,181.002 211.531 C 181.078 211.455,177.869 209.731,173.870 207.699 C 158.763 200.023,150.001 191.331,146.583 180.629 C 146.086 179.073,145.661 177.952,145.640 178.138 M350.901 180.600 C 350.905 181.480,350.987 181.793,351.083 181.295 C 351.179 180.798,351.175 180.078,351.075 179.695 C 350.975 179.313,350.896 179.720,350.901 180.600 M351.324 184.600 C 351.326 185.920,351.401 186.412,351.490 185.693 C 351.579 184.974,351.577 183.894,351.486 183.293 C 351.395 182.692,351.322 183.280,351.324 184.600 M28.531 188.600 C 28.533 190.140,28.605 190.721,28.692 189.891 C 28.779 189.061,28.777 187.801,28.689 187.091 C 28.600 186.381,28.529 187.060,28.531 188.600 M351.780 201.200 C 351.780 208.790,351.834 211.895,351.899 208.100 C 351.965 204.305,351.965 198.095,351.899 194.300 C 351.834 190.505,351.780 193.610,351.780 201.200 M48.940 191.200 C 48.940 193.070,49.009 193.835,49.093 192.900 C 49.177 191.965,49.177 190.435,49.093 189.500 C 49.009 188.565,48.940 189.330,48.940 191.200 M28.174 201.600 C 28.174 207.210,28.230 209.505,28.299 206.700 C 28.368 203.895,28.368 199.305,28.299 196.500 C 28.230 193.695,28.174 195.990,28.174 201.600 M207.002 192.741 C 207.883 193.150,209.053 193.600,209.602 193.742 C 210.151 193.885,209.879 193.667,208.998 193.259 C 208.117 192.850,206.947 192.400,206.398 192.258 C 205.849 192.115,206.121 192.333,207.002 192.741 M373.370 201.800 C 373.371 206.640,373.429 208.565,373.499 206.078 C 373.569 203.591,373.569 199.631,373.498 197.278 C 373.428 194.925,373.370 196.960,373.370 201.800 M211.800 194.555 C 212.460 194.855,213.450 195.211,214.000 195.346 C 214.803 195.543,214.764 195.484,213.800 195.045 C 213.140 194.745,212.150 194.389,211.600 194.254 C 210.797 194.057,210.836 194.116,211.800 194.555 M221.800 199.132 C 239.127 208.064,244.735 213.922,249.630 228.200 C 250.460 230.620,251.153 232.387,251.169 232.127 C 251.482 227.286,243.652 213.774,237.400 208.363 C 233.542 205.024,217.102 195.537,215.306 195.613 C 215.138 195.620,218.060 197.203,221.800 199.132 M48.528 204.800 C 48.528 206.230,48.601 206.815,48.689 206.100 C 48.778 205.385,48.778 204.215,48.689 203.500 C 48.601 202.785,48.528 203.370,48.528 204.800 M48.937 211.800 C 48.939 213.560,49.009 214.230,49.093 213.289 C 49.178 212.349,49.177 210.909,49.091 210.089 C 49.005 209.270,48.936 210.040,48.937 211.800 M372.914 212.600 C 372.917 213.700,372.995 214.103,373.087 213.495 C 373.179 212.886,373.177 211.986,373.082 211.495 C 372.987 211.003,372.911 211.500,372.914 212.600 M182.523 212.199 C 183.140 212.557,185.930 213.634,188.723 214.592 C 191.515 215.551,194.680 216.714,195.757 217.178 C 196.833 217.641,197.785 217.949,197.872 217.861 C 198.073 217.660,193.109 215.674,187.400 213.672 C 184.980 212.823,182.640 211.998,182.200 211.839 C 181.760 211.679,181.905 211.842,182.523 212.199 M28.531 214.600 C 28.533 216.140,28.605 216.721,28.692 215.891 C 28.779 215.061,28.777 213.801,28.689 213.091 C 28.600 212.381,28.529 213.060,28.531 214.600 M372.200 218.000 C 372.042 219.785,371.999 221.332,372.103 221.437 C 372.208 221.542,372.422 220.165,372.578 218.378 C 372.734 216.590,372.777 215.044,372.674 214.941 C 372.571 214.838,372.358 216.215,372.200 218.000 M49.314 217.000 C 49.317 218.100,49.395 218.503,49.487 217.895 C 49.579 217.286,49.577 216.386,49.482 215.895 C 49.387 215.403,49.311 215.900,49.314 217.000 M351.331 218.600 C 351.333 220.140,351.405 220.721,351.492 219.891 C 351.579 219.061,351.577 217.801,351.489 217.091 C 351.400 216.381,351.329 217.060,351.331 218.600 M28.920 219.600 C 28.920 220.810,28.995 221.305,29.087 220.700 C 29.178 220.095,29.178 219.105,29.087 218.500 C 28.995 217.895,28.920 218.390,28.920 219.600 M202.697 220.369 C 210.367 224.378,214.126 227.598,216.801 232.451 C 217.453 233.633,217.989 234.409,217.993 234.176 C 218.051 230.801,210.355 223.760,202.109 219.643 C 197.146 217.165,197.571 217.690,202.697 220.369 M49.701 220.600 C 49.705 221.480,49.787 221.793,49.883 221.295 C 49.979 220.798,49.975 220.078,49.875 219.695 C 49.775 219.313,49.696 219.720,49.701 220.600 M350.641 223.922 C 350.496 225.199,350.019 227.746,349.581 229.581 C 349.143 231.416,348.860 232.993,348.952 233.086 C 349.045 233.178,349.492 231.667,349.947 229.727 C 350.821 225.997,351.448 221.600,351.107 221.600 C 350.995 221.600,350.785 222.645,350.641 223.922 M29.314 223.800 C 29.317 224.900,29.395 225.303,29.487 224.695 C 29.579 224.086,29.577 223.186,29.482 222.695 C 29.387 222.203,29.311 222.700,29.314 223.800 M371.701 223.400 C 371.705 224.280,371.787 224.593,371.883 224.095 C 371.979 223.598,371.975 222.878,371.875 222.495 C 371.775 222.113,371.696 222.520,371.701 223.400 M50.594 225.800 C 50.944 228.181,52.744 235.376,52.746 234.400 C 52.747 233.850,52.223 231.420,51.583 229.000 C 50.942 226.580,50.497 225.140,50.594 225.800 M371.293 226.400 C 371.293 227.170,371.375 227.485,371.476 227.100 C 371.576 226.715,371.576 226.085,371.476 225.700 C 371.375 225.315,371.293 225.630,371.293 226.400 M29.720 228.000 C 29.720 229.210,29.795 229.705,29.887 229.100 C 29.978 228.495,29.978 227.505,29.887 226.900 C 29.795 226.295,29.720 226.790,29.720 228.000 M370.893 229.200 C 370.893 229.970,370.975 230.285,371.076 229.900 C 371.176 229.515,371.176 228.885,371.076 228.500 C 370.975 228.115,370.893 228.430,370.893 229.200 M30.093 231.600 C 30.093 232.370,30.175 232.685,30.276 232.300 C 30.376 231.915,30.376 231.285,30.276 230.900 C 30.175 230.515,30.093 230.830,30.093 231.600 M370.509 232.400 C 370.509 233.390,370.587 233.795,370.682 233.300 C 370.778 232.805,370.778 231.995,370.682 231.500 C 370.587 231.005,370.509 231.410,370.509 232.400 M251.268 233.200 C 251.288 234.239,251.918 235.946,251.932 235.000 C 251.938 234.560,251.789 233.840,251.600 233.400 C 251.389 232.910,251.261 232.832,251.268 233.200 M348.000 235.600 C 347.730 236.724,347.589 237.723,347.687 237.820 C 347.784 237.917,348.077 237.070,348.338 235.938 C 348.600 234.806,348.741 233.807,348.652 233.719 C 348.563 233.630,348.270 234.476,348.000 235.600 M370.093 235.600 C 370.093 236.370,370.175 236.685,370.276 236.300 C 370.376 235.915,370.376 235.285,370.276 234.900 C 370.175 234.515,370.093 234.830,370.093 235.600 M218.033 234.800 C 218.015 234.910,218.352 235.900,218.782 237.000 C 219.211 238.100,219.566 238.730,219.571 238.400 C 219.579 237.833,218.101 234.375,218.033 234.800 M30.857 235.800 C 30.861 236.634,31.921 239.700,31.963 239.000 C 31.977 238.780,31.733 237.790,31.421 236.800 C 31.109 235.810,30.855 235.360,30.857 235.800 M252.093 237.200 C 252.093 237.970,252.175 238.285,252.276 237.900 C 252.376 237.515,252.376 236.885,252.276 236.500 C 252.175 236.115,252.093 236.430,252.093 237.200 M53.433 239.390 C 53.729 241.373,55.594 247.340,55.840 247.093 C 55.940 246.993,55.823 246.391,55.579 245.755 C 55.335 245.120,54.698 243.070,54.165 241.200 C 53.632 239.330,53.302 238.516,53.433 239.390 M141.585 238.900 C 134.128 242.660,140.551 266.590,151.305 275.118 C 155.767 278.655,163.608 283.622,164.684 283.591 C 164.858 283.586,163.920 282.998,162.600 282.284 C 147.416 274.071,138.831 261.253,138.807 246.759 C 138.794 238.801,139.527 238.398,154.000 238.409 C 167.310 238.420,168.135 238.693,169.626 243.597 C 169.873 244.408,169.937 244.447,169.959 243.800 C 170.013 242.247,168.269 239.836,166.414 238.900 C 164.698 238.034,164.229 238.000,154.000 238.000 C 143.771 238.000,143.302 238.034,141.585 238.900 M219.906 242.400 C 220.019 244.270,220.176 245.875,220.256 245.967 C 220.522 246.274,220.309 241.414,220.003 240.200 C 219.836 239.539,219.792 240.528,219.906 242.400 M252.551 243.600 C 252.551 246.130,252.616 247.165,252.696 245.900 C 252.775 244.635,252.775 242.565,252.696 241.300 C 252.616 240.035,252.551 241.070,252.551 243.600 M32.056 240.000 C 32.056 240.330,32.211 240.960,32.400 241.400 C 32.617 241.904,32.744 241.978,32.744 241.600 C 32.744 241.270,32.589 240.640,32.400 240.200 C 32.183 239.696,32.056 239.622,32.056 240.000 M368.042 243.642 C 367.542 245.195,367.204 246.537,367.291 246.624 C 367.377 246.711,367.858 245.511,368.358 243.958 C 368.858 242.405,369.196 241.063,369.109 240.976 C 369.023 240.889,368.542 242.089,368.042 243.642 M344.238 249.600 C 335.617 275.153,317.871 301.279,298.800 316.496 C 296.710 318.164,293.415 320.859,291.478 322.487 C 287.735 325.631,277.435 332.233,271.303 335.418 C 269.269 336.475,267.669 337.402,267.747 337.480 C 268.411 338.144,286.957 326.788,291.566 322.894 C 293.235 321.484,296.760 318.567,299.400 316.411 C 304.696 312.087,311.650 305.138,315.624 300.200 C 317.041 298.440,319.664 295.244,321.454 293.098 C 327.132 286.292,335.055 272.938,339.868 262.064 C 342.208 256.777,346.903 243.717,346.714 243.021 C 346.651 242.789,345.537 245.750,344.238 249.600 M33.280 244.600 C 33.280 245.040,33.424 245.850,33.600 246.400 C 33.854 247.192,33.920 247.233,33.920 246.600 C 33.920 246.160,33.776 245.350,33.600 244.800 C 33.346 244.008,33.280 243.967,33.280 244.600 M170.087 245.600 C 170.083 246.150,170.224 247.050,170.400 247.600 C 170.831 248.944,170.831 247.492,170.400 245.800 C 170.126 244.722,170.094 244.702,170.087 245.600 M219.489 247.800 C 218.104 255.946,210.592 263.177,202.245 264.400 C 200.466 264.661,200.390 264.707,201.658 264.750 C 205.301 264.875,211.677 261.692,214.627 258.275 C 217.011 255.515,220.256 248.530,219.911 246.903 C 219.829 246.516,219.639 246.920,219.489 247.800 M366.400 249.200 C 366.130 250.324,365.989 251.323,366.087 251.420 C 366.184 251.517,366.477 250.670,366.738 249.538 C 367.000 248.406,367.141 247.407,367.052 247.319 C 366.963 247.230,366.670 248.076,366.400 249.200 M34.046 248.095 C 33.993 248.897,36.383 256.550,36.615 256.319 C 36.699 256.234,36.254 254.553,35.625 252.582 C 34.996 250.612,34.394 248.640,34.287 248.200 C 34.132 247.561,34.083 247.540,34.046 248.095 M170.822 249.143 C 170.655 253.286,181.916 264.000,186.437 264.000 C 186.734 264.000,185.679 263.378,184.092 262.617 C 177.355 259.389,173.837 255.974,171.619 250.510 C 171.193 249.459,170.834 248.844,170.822 249.143 M365.450 253.250 C 365.309 253.953,365.269 254.602,365.359 254.692 C 365.450 254.783,365.648 254.291,365.800 253.600 C 365.952 252.909,365.993 252.259,365.891 252.158 C 365.789 252.056,365.591 252.547,365.450 253.250 M249.829 257.515 C 245.580 270.486,238.551 278.308,226.199 283.812 C 224.327 284.646,222.865 285.398,222.950 285.483 C 223.035 285.568,224.682 284.908,226.611 284.017 C 239.177 278.212,245.895 270.707,250.191 257.675 C 251.012 255.186,251.611 253.078,251.523 252.990 C 251.436 252.902,250.673 254.939,249.829 257.515 M58.243 254.400 C 58.602 255.851,61.683 263.251,61.856 263.078 C 61.985 262.948,59.381 256.301,58.378 254.200 C 58.054 253.521,58.033 253.551,58.243 254.400 M363.867 258.067 C 363.505 258.988,363.274 259.807,363.354 259.888 C 363.434 259.968,363.800 259.283,364.167 258.367 C 364.533 257.450,364.764 256.631,364.679 256.546 C 364.594 256.461,364.229 257.145,363.867 258.067 M36.800 256.925 C 36.800 258.005,41.946 270.987,42.253 270.681 C 42.333 270.600,41.706 268.929,40.859 266.967 C 40.012 265.005,38.827 261.915,38.226 260.100 C 37.324 257.373,36.800 256.207,36.800 256.925 M361.446 264.246 C 361.092 265.285,360.872 266.205,360.956 266.290 C 361.041 266.374,361.400 265.593,361.754 264.554 C 362.108 263.515,362.328 262.595,362.244 262.510 C 362.159 262.426,361.800 263.207,361.446 264.246 M62.010 263.762 C 61.959 265.675,73.500 285.083,79.257 292.767 C 83.715 298.717,97.385 312.716,106.597 320.766 C 111.395 324.959,132.000 337.808,132.000 336.607 C 132.000 336.497,130.230 335.519,128.066 334.433 C 123.345 332.064,109.575 322.960,106.160 319.950 C 86.772 302.863,74.790 288.148,65.322 269.800 C 63.505 266.280,62.015 263.563,62.010 263.762 M188.000 264.398 C 188.988 264.716,192.689 264.935,192.367 264.656 C 192.275 264.577,191.030 264.414,189.600 264.294 C 188.040 264.163,187.400 264.205,188.000 264.398 M195.111 265.093 C 196.051 265.178,197.491 265.177,198.311 265.091 C 199.130 265.005,198.360 264.936,196.600 264.937 C 194.840 264.939,194.170 265.009,195.111 265.093 M358.857 270.657 C 357.934 272.777,357.242 274.575,357.321 274.654 C 357.399 274.733,358.219 273.063,359.143 270.943 C 360.066 268.823,360.758 267.025,360.679 266.946 C 360.601 266.867,359.781 268.537,358.857 270.657 M42.425 271.293 C 42.235 273.509,55.988 297.593,60.971 303.773 C 62.758 305.988,66.495 310.680,69.277 314.200 C 76.484 323.318,81.192 327.759,95.351 338.788 C 100.840 343.065,110.660 349.674,114.800 351.880 C 117.175 353.144,116.411 352.624,108.154 347.353 C 101.740 343.259,94.667 337.987,85.436 330.420 C 79.560 325.604,73.731 319.480,67.903 312.000 C 64.903 308.150,61.453 303.779,60.236 302.287 C 57.007 298.330,48.491 283.699,44.353 275.000 C 43.306 272.800,42.439 271.132,42.425 271.293 M354.978 279.291 C 352.146 285.115,346.112 294.984,341.829 300.800 C 339.803 303.550,336.991 307.510,335.579 309.600 C 332.347 314.384,314.752 332.083,309.550 335.782 C 307.707 337.092,303.590 340.088,300.400 342.439 C 292.082 348.570,281.044 354.752,267.924 360.628 C 261.615 363.453,260.260 364.762,259.812 368.458 C 259.611 370.114,259.628 370.095,260.150 368.068 C 260.914 365.104,262.759 363.339,267.100 361.416 C 279.621 355.869,293.052 348.414,300.173 343.058 C 302.608 341.226,306.580 338.315,309.000 336.587 C 315.178 332.178,332.318 315.045,335.999 309.600 C 337.412 307.510,340.075 303.769,341.917 301.287 C 347.355 293.958,357.824 276.091,357.103 275.369 C 357.022 275.289,356.066 277.054,354.978 279.291 M165.200 283.715 C 165.200 283.991,170.459 286.074,170.657 285.876 C 170.744 285.789,169.868 285.348,168.708 284.897 C 167.549 284.447,166.285 283.951,165.900 283.796 C 165.515 283.641,165.200 283.605,165.200 283.715 M218.600 286.800 C 218.096 287.017,218.022 287.144,218.400 287.144 C 218.730 287.144,219.360 286.989,219.800 286.800 C 220.304 286.583,220.378 286.456,220.000 286.456 C 219.670 286.456,219.040 286.611,218.600 286.800 M211.757 288.164 C 208.019 289.071,205.190 291.685,205.224 294.200 C 205.230 294.659,205.469 294.345,205.783 293.462 C 206.843 290.490,208.393 289.362,212.800 288.355 C 214.450 287.978,215.350 287.669,214.800 287.669 C 214.250 287.668,212.881 287.891,211.757 288.164 M181.043 288.530 C 183.946 289.283,185.664 290.405,186.693 292.222 C 187.185 293.090,187.590 293.602,187.593 293.359 C 187.622 291.436,183.860 288.594,180.789 288.219 L 179.000 288.001 181.043 288.530 M187.850 298.275 C 188.174 306.711,188.287 307.821,188.948 309.099 C 190.055 311.240,192.332 312.128,196.800 312.160 C 202.129 312.199,204.222 310.890,204.623 307.268 L 204.786 305.800 204.446 307.090 C 203.489 310.714,201.763 311.805,197.017 311.784 C 189.724 311.753,188.713 310.513,188.389 301.197 C 188.259 297.469,188.047 294.314,187.918 294.185 C 187.789 294.056,187.758 295.896,187.850 298.275 M204.957 300.400 C 204.957 303.370,205.020 304.585,205.097 303.100 C 205.174 301.615,205.174 299.185,205.097 297.700 C 205.020 296.215,204.957 297.430,204.957 300.400 M245.800 320.677 C 245.140 321.032,243.160 322.432,241.400 323.788 C 239.640 325.145,236.670 327.350,234.800 328.688 C 232.930 330.027,229.510 332.767,227.200 334.776 C 224.890 336.786,220.866 339.884,218.258 341.662 C 215.650 343.440,211.597 346.574,209.251 348.627 C 206.905 350.680,203.281 353.682,201.197 355.298 C 195.621 359.622,194.486 361.815,196.553 364.271 C 197.484 365.378,206.723 370.122,208.800 370.559 C 209.583 370.724,209.539 370.665,208.600 370.290 C 194.055 364.471,193.092 362.182,202.163 354.994 C 204.563 353.092,208.094 350.131,210.010 348.413 C 211.926 346.695,215.384 344.021,217.695 342.470 C 221.937 339.625,225.218 337.058,229.143 333.515 C 231.010 331.830,235.933 328.161,244.460 322.100 C 248.861 318.972,251.371 320.106,252.387 325.681 L 252.774 327.800 252.609 325.727 C 252.217 320.791,249.431 318.725,245.800 320.677 M252.914 329.800 C 252.917 330.900,252.995 331.303,253.087 330.695 C 253.179 330.086,253.177 329.186,253.082 328.695 C 252.987 328.203,252.911 328.700,252.914 329.800 M253.454 334.000 C 253.837 338.362,256.748 341.293,259.910 340.502 C 261.393 340.130,261.391 340.129,259.302 340.141 C 256.040 340.159,254.655 338.463,253.469 333.000 C 253.374 332.560,253.367 333.010,253.454 334.000 M132.400 336.996 C 132.400 337.270,134.849 338.484,135.032 338.301 C 135.119 338.214,134.562 337.844,133.795 337.478 C 133.028 337.112,132.400 336.895,132.400 336.996 M264.600 338.638 C 263.500 339.172,263.050 339.494,263.600 339.354 C 264.742 339.062,267.607 337.627,267.000 337.651 C 266.780 337.660,265.700 338.104,264.600 338.638 M137.600 339.600 C 138.810 340.239,139.980 340.762,140.200 340.762 C 140.420 340.762,139.610 340.239,138.400 339.600 C 137.190 338.961,136.020 338.438,135.800 338.438 C 135.580 338.438,136.390 338.961,137.600 339.600 M141.200 341.160 C 141.530 341.399,143.510 342.262,145.600 343.077 C 149.912 344.759,152.125 346.530,152.999 349.000 C 153.310 349.880,153.573 350.278,153.582 349.884 C 153.649 347.170,151.032 344.836,145.397 342.585 C 140.547 340.647,140.446 340.613,141.200 341.160 M153.686 355.892 C 153.532 365.378,151.341 367.301,143.800 364.568 C 142.260 364.010,138.930 362.830,136.400 361.946 C 133.870 361.061,128.482 358.645,124.427 356.575 C 120.372 354.506,116.994 352.873,116.919 352.947 C 116.559 353.308,132.370 360.935,136.400 362.345 C 138.930 363.230,142.260 364.410,143.800 364.968 C 151.837 367.881,154.216 365.582,153.908 355.200 L 153.771 350.600 153.686 355.892 M210.400 371.133 C 210.730 371.336,211.450 371.624,212.000 371.771 C 212.695 371.957,212.817 371.925,212.400 371.667 C 212.070 371.464,211.350 371.176,210.800 371.029 C 210.105 370.843,209.983 370.875,210.400 371.133 M213.200 372.162 C 213.200 372.252,215.135 373.143,217.500 374.142 C 219.865 375.142,224.214 377.049,227.164 378.382 C 230.115 379.714,232.595 380.738,232.676 380.658 C 232.832 380.502,226.659 377.682,218.411 374.142 C 213.181 371.897,213.200 371.904,213.200 372.162 M260.487 373.400 C 260.491 373.840,260.632 374.740,260.800 375.400 C 261.074 376.478,261.106 376.498,261.113 375.600 C 261.117 375.050,260.976 374.150,260.800 373.600 C 260.549 372.816,260.481 372.773,260.487 373.400 M261.301 378.200 C 261.305 379.080,261.387 379.393,261.483 378.895 C 261.579 378.398,261.575 377.678,261.475 377.295 C 261.375 376.913,261.296 377.320,261.301 378.200 M261.720 382.000 C 261.720 383.210,261.795 383.705,261.887 383.100 C 261.978 382.495,261.978 381.505,261.887 380.900 C 261.795 380.295,261.720 380.790,261.720 382.000 M235.393 382.049 C 236.484 382.730,246.921 386.812,247.104 386.629 C 247.185 386.548,244.589 385.428,241.335 384.141 C 234.574 381.466,234.313 381.375,235.393 382.049 M262.046 385.640 C 261.878 390.860,259.505 391.574,252.231 388.595 C 249.828 387.610,247.799 386.867,247.723 386.944 C 247.312 387.355,256.061 390.544,258.043 390.706 C 261.195 390.962,263.149 388.309,262.285 384.947 C 262.179 384.536,262.072 384.848,262.046 385.640 " stroke="none" fill="#7c7c7c" fill-rule="evenodd"></path><path id="path3" d="M126.526 16.355 C 123.802 18.069,123.579 21.441,125.560 30.962 C 127.697 41.239,127.084 42.847,119.600 46.594 C 86.106 63.361,54.821 97.089,40.010 132.400 C 35.079 144.154,29.168 164.383,28.028 173.400 C 22.231 219.268,29.709 256.176,52.533 294.331 C 56.125 300.337,57.494 302.194,68.213 315.600 C 84.031 335.384,113.100 355.733,138.800 365.014 C 153.450 370.304,155.800 369.085,155.800 356.200 C 155.800 345.971,154.818 344.410,146.336 341.152 C 105.681 325.541,72.722 290.805,58.356 248.430 C 50.836 226.247,48.412 193.882,52.946 176.181 C 53.281 174.871,54.018 171.460,54.584 168.600 C 57.821 152.224,67.730 129.627,77.527 116.283 C 90.447 98.683,101.303 88.049,117.908 76.728 C 129.641 68.728,131.321 68.837,133.240 77.725 C 136.842 94.415,139.272 94.596,157.127 79.503 C 159.617 77.398,163.675 74.235,166.144 72.474 C 168.614 70.713,173.145 67.180,176.214 64.624 C 179.283 62.068,183.865 58.515,186.397 56.729 C 195.322 50.432,197.331 47.587,195.257 44.187 C 194.374 42.738,193.286 42.166,183.400 37.951 C 165.791 30.443,153.476 25.161,148.600 23.027 C 132.710 16.073,128.834 14.902,126.526 16.355 M137.725 19.758 C 141.286 21.165,147.260 23.665,151.000 25.315 C 154.740 26.965,160.680 29.520,164.200 30.994 C 167.720 32.467,172.940 34.717,175.800 35.994 C 181.690 38.624,185.219 40.148,189.700 41.996 C 197.237 45.105,196.319 48.263,185.693 55.773 C 182.994 57.680,178.494 61.180,175.693 63.551 C 172.892 65.921,168.409 69.419,165.731 71.324 C 163.053 73.228,158.643 76.685,155.931 79.006 C 140.194 92.472,137.728 92.288,134.363 77.400 C 132.298 68.265,130.663 67.510,122.870 72.089 C 117.899 75.010,115.118 76.925,110.800 80.396 C 108.710 82.076,105.380 84.697,103.400 86.220 C 98.772 89.780,90.951 97.384,87.519 101.660 C 75.886 116.153,75.525 116.644,71.193 123.802 C 66.515 131.533,59.658 146.306,57.844 152.564 C 57.320 154.371,56.407 157.188,55.813 158.824 C 55.220 160.461,54.122 164.770,53.374 168.400 C 52.625 172.030,51.745 176.170,51.417 177.600 C 48.848 188.814,48.970 214.606,51.650 226.600 C 52.092 228.580,52.969 232.720,53.599 235.800 C 62.714 280.356,99.078 323.029,143.400 341.179 C 152.799 345.028,153.726 345.918,154.451 351.800 C 156.090 365.084,152.750 368.890,142.726 365.162 C 140.897 364.482,137.600 363.298,135.400 362.533 C 130.501 360.828,115.316 353.095,109.600 349.394 C 100.550 343.535,98.726 342.224,90.800 335.885 C 81.150 328.168,75.511 322.907,71.480 317.862 C 59.280 302.590,57.129 299.720,54.073 294.628 C 43.692 277.335,36.708 261.341,33.013 246.400 C 32.278 243.430,31.219 239.256,30.658 237.124 C 27.308 224.389,26.631 194.062,29.235 173.400 C 32.464 147.785,49.731 110.001,67.405 89.874 C 74.627 81.650,90.031 66.895,94.627 63.800 C 95.932 62.921,98.980 60.824,101.400 59.141 C 106.455 55.624,117.750 48.740,121.867 46.667 C 128.032 43.562,128.963 40.839,126.985 31.693 C 123.722 16.610,125.305 14.851,137.725 19.758 M249.057 34.802 C 245.749 35.819,245.097 37.929,245.267 47.078 L 245.400 54.266 246.614 56.233 C 248.079 58.605,250.331 60.045,256.326 62.442 C 286.420 74.474,313.007 97.442,329.486 125.642 C 337.170 138.791,343.400 153.668,345.392 163.627 C 345.764 165.482,346.585 169.015,347.217 171.478 C 349.907 181.959,350.956 210.982,349.070 222.757 C 343.837 255.432,329.206 284.406,306.417 307.224 C 301.868 311.778,299.708 313.659,290.135 321.400 C 282.020 327.962,264.843 337.565,260.590 337.917 C 256.775 338.234,255.880 336.790,254.797 328.577 C 253.538 319.030,251.329 316.198,246.662 318.148 C 244.793 318.929,232.707 327.954,225.887 333.661 C 223.075 336.015,218.935 339.198,216.687 340.736 C 214.439 342.273,210.523 345.307,207.986 347.476 C 205.448 349.646,202.208 352.305,200.786 353.386 C 189.149 362.225,190.365 365.313,208.200 372.209 C 212.908 374.029,225.907 379.625,232.800 382.799 C 235.110 383.863,238.170 385.176,239.600 385.717 C 241.030 386.258,245.494 388.078,249.521 389.761 C 264.647 396.084,266.337 393.989,262.548 373.611 C 261.462 367.768,262.298 365.666,266.514 363.644 C 290.840 351.974,292.612 350.920,311.200 337.060 C 316.105 333.403,333.400 316.122,336.481 311.800 C 337.736 310.040,340.508 306.190,342.642 303.244 C 353.505 288.244,364.131 266.891,367.642 253.003 C 368.088 251.241,369.161 247.388,370.026 244.440 C 372.821 234.927,375.336 214.529,375.309 201.600 C 375.284 189.726,372.741 167.491,370.585 160.301 C 370.040 158.486,368.965 154.840,368.194 152.200 C 363.254 135.267,355.435 118.789,344.870 103.045 C 326.814 76.140,296.544 51.536,267.515 40.171 C 254.425 35.047,251.259 34.126,249.057 34.802 M257.674 37.782 C 290.175 49.537,309.546 63.109,335.669 92.425 C 337.988 95.028,339.873 97.675,347.613 109.200 C 355.098 120.344,361.934 136.185,368.761 158.200 C 372.833 171.330,375.215 200.580,373.453 215.800 C 371.398 233.551,370.573 238.626,368.806 244.400 C 368.166 246.490,367.245 249.820,366.758 251.800 C 363.380 265.551,352.171 288.422,342.303 301.698 C 340.462 304.174,338.020 307.588,336.876 309.285 C 332.946 315.114,316.933 331.409,310.502 336.123 C 308.944 337.265,304.814 340.298,301.324 342.861 C 292.424 349.399,279.644 356.585,268.000 361.599 C 260.709 364.739,259.922 366.581,261.760 376.200 C 262.096 377.960,262.493 381.561,262.641 384.203 L 262.912 389.006 261.820 390.303 C 260.019 392.443,258.610 392.202,248.267 387.983 C 237.191 383.466,237.037 383.400,225.400 378.222 C 220.120 375.872,213.730 373.149,211.200 372.169 C 192.404 364.895,190.935 362.310,201.200 354.565 C 202.630 353.486,205.960 350.740,208.600 348.462 C 211.240 346.185,215.470 342.906,218.000 341.176 C 220.530 339.446,224.310 336.556,226.400 334.754 C 230.722 331.027,243.893 321.074,245.994 319.947 C 250.520 317.521,252.681 320.037,253.595 328.800 C 254.874 341.065,257.010 341.959,269.728 335.553 C 278.457 331.157,287.440 325.384,292.957 320.627 C 294.521 319.278,297.690 316.628,300.000 314.738 C 320.446 298.006,341.114 264.948,346.391 240.537 C 346.860 238.372,347.780 234.469,348.436 231.865 C 352.002 217.718,352.163 186.164,348.738 172.800 C 348.089 170.270,347.106 166.060,346.553 163.445 C 344.385 153.197,338.340 138.468,331.595 127.000 C 330.560 125.240,328.974 122.520,328.071 120.954 C 327.168 119.389,325.646 117.139,324.689 115.954 C 323.733 114.770,321.622 111.919,320.000 109.620 C 306.498 90.486,279.247 69.734,256.400 61.187 C 247.703 57.934,246.406 55.992,246.402 46.226 C 246.398 35.567,248.076 34.310,257.674 37.782 M192.785 92.500 C 189.568 94.122,189.073 95.621,188.790 104.600 C 188.434 115.875,188.898 115.360,176.000 118.812 C 147.234 126.510,133.310 158.363,146.544 186.200 C 152.122 197.934,167.795 209.133,189.000 216.537 C 207.131 222.869,214.849 228.872,217.389 238.621 C 219.084 245.130,217.118 252.723,212.538 257.356 C 203.402 266.599,182.548 264.508,175.278 253.621 C 173.591 251.095,173.023 249.551,171.622 243.683 C 169.904 236.489,169.232 236.200,154.200 236.200 C 138.291 236.200,136.410 237.152,136.402 245.210 C 136.381 266.662,152.354 284.013,177.302 289.638 C 185.474 291.481,185.649 291.711,186.032 301.200 C 186.477 312.232,188.018 314.000,197.188 314.000 C 205.019 314.000,206.445 312.188,206.789 301.802 C 207.088 292.782,208.059 291.079,213.525 289.995 C 235.667 285.604,247.542 274.547,253.471 252.800 C 254.354 249.562,254.461 238.329,253.645 234.600 C 248.913 212.970,237.167 201.706,208.200 191.020 C 185.761 182.743,177.940 175.670,177.882 163.600 C 177.817 150.156,188.326 141.752,201.665 144.579 C 209.826 146.308,213.860 150.532,217.196 160.836 C 220.104 169.821,220.069 169.804,236.000 169.788 C 254.402 169.769,255.713 168.332,251.656 152.631 C 247.108 135.024,235.705 123.428,218.200 118.607 C 209.427 116.191,209.121 115.742,208.805 104.800 C 208.469 93.169,207.280 91.600,198.800 91.600 C 195.208 91.600,194.300 91.736,192.785 92.500 M203.800 93.600 C 206.878 95.090,207.347 96.550,207.591 105.400 C 207.894 116.426,208.401 117.097,218.641 120.040 C 235.464 124.875,245.989 135.675,250.468 152.698 C 254.361 167.498,253.396 168.537,235.779 168.512 C 220.793 168.491,221.180 168.690,217.978 159.363 C 215.316 151.612,212.565 147.939,207.541 145.425 C 191.002 137.151,173.231 149.992,176.949 167.531 C 179.192 178.114,187.012 184.327,208.038 192.231 C 237.308 203.235,249.319 215.127,252.795 236.544 C 254.910 249.574,249.645 266.358,240.600 275.412 C 234.993 281.025,223.718 286.837,215.400 288.400 C 206.721 290.031,206.042 290.933,205.616 301.400 C 205.235 310.762,204.299 312.314,198.798 312.707 C 189.420 313.378,187.662 311.546,187.235 300.650 C 186.850 290.849,186.433 290.308,177.907 288.554 C 154.278 283.690,138.074 266.799,137.851 246.800 C 137.754 238.075,139.238 237.207,154.245 237.202 C 167.965 237.198,169.251 237.833,170.845 245.400 C 173.570 258.327,182.190 264.301,197.553 263.909 C 211.346 263.557,219.015 256.293,218.992 243.600 C 218.968 230.192,209.784 221.988,186.103 214.218 C 176.158 210.955,161.425 202.198,154.895 195.668 C 143.770 184.542,139.841 166.194,145.075 149.800 C 150.279 133.499,160.981 123.840,178.926 119.251 C 189.355 116.584,189.625 116.241,189.990 105.184 C 190.278 96.442,190.669 95.201,193.608 93.700 C 196.018 92.469,201.355 92.416,203.800 93.600 " stroke="none" fill="#9a9a9a" fill-rule="evenodd"></path><path id="path4" d="M128.092 18.668 C 126.120 19.461,125.984 22.964,127.641 30.303 C 130.125 41.302,129.267 43.932,122.001 47.599 C 117.889 49.675,106.680 56.572,100.821 60.631 C 97.839 62.696,94.416 65.064,93.214 65.893 C 90.549 67.730,70.960 86.960,67.230 91.400 C 62.072 97.541,52.038 112.879,47.213 122.000 C 42.688 130.553,35.601 148.603,34.413 154.600 C 34.151 155.920,33.145 160.060,32.177 163.800 C 27.653 181.276,27.248 220.964,31.434 236.573 C 31.969 238.568,33.023 242.720,33.778 245.800 C 38.004 263.057,51.181 291.189,60.236 302.287 C 61.453 303.779,64.901 308.150,67.898 312.000 C 75.962 322.359,80.156 326.372,95.600 338.503 C 107.036 347.486,125.693 358.206,136.400 361.947 C 138.930 362.831,142.260 364.010,143.800 364.568 C 151.323 367.295,153.602 365.324,153.598 356.092 C 153.595 348.717,152.398 345.939,148.514 344.292 C 147.681 343.939,145.200 342.904,143.000 341.993 C 131.309 337.149,113.384 326.697,106.597 320.766 C 76.919 294.833,58.859 266.503,52.814 236.400 C 52.174 233.210,51.281 229.064,50.831 227.187 C 47.750 214.351,47.924 187.401,51.171 174.472 C 51.817 171.903,52.553 168.450,52.808 166.800 C 53.247 163.963,55.800 155.512,58.489 148.000 C 62.338 137.245,72.028 119.519,78.037 112.241 C 79.707 110.218,82.386 106.771,83.991 104.581 C 88.072 99.013,98.500 88.721,105.400 83.452 C 108.480 81.100,112.200 78.236,113.667 77.088 C 120.077 72.069,128.176 67.839,130.516 68.286 C 132.995 68.760,133.706 70.204,135.595 78.600 C 138.250 90.401,141.740 90.446,154.800 78.846 C 159.272 74.873,161.388 73.202,165.764 70.184 C 167.943 68.680,172.304 65.262,175.454 62.587 C 178.605 59.913,183.336 56.253,185.968 54.455 C 195.088 48.224,195.677 45.265,188.363 42.430 C 186.733 41.799,183.150 40.258,180.400 39.006 C 174.972 36.535,166.426 32.862,160.400 30.410 C 158.310 29.560,153.720 27.570,150.200 25.989 C 135.886 19.559,130.395 17.741,128.092 18.668 M136.667 22.777 C 139.050 23.645,144.240 25.818,148.200 27.606 C 155.342 30.831,160.595 33.057,168.098 36.039 C 170.242 36.891,173.241 38.215,174.762 38.981 C 176.284 39.747,180.110 41.477,183.265 42.825 C 189.798 45.616,190.000 45.744,190.000 47.075 C 190.000 48.817,189.241 49.570,184.080 52.947 C 181.228 54.813,176.807 58.239,174.000 60.758 C 171.250 63.227,166.746 66.749,163.991 68.585 C 161.236 70.421,157.186 73.592,154.991 75.633 C 142.355 87.379,139.446 87.249,136.974 74.828 C 135.383 66.836,133.274 64.553,128.474 65.628 C 126.138 66.152,115.046 72.827,111.452 75.872 C 108.299 78.543,104.066 81.799,100.364 84.400 C 95.994 87.470,85.376 98.423,82.139 103.200 C 80.573 105.510,78.327 108.484,77.146 109.809 C 75.966 111.134,74.440 112.934,73.755 113.809 C 68.380 120.675,57.478 142.359,55.051 151.010 C 54.494 152.996,53.394 156.290,52.606 158.330 C 51.727 160.606,50.943 163.616,50.578 166.120 C 50.250 168.364,49.430 172.164,48.755 174.564 C 45.561 185.921,45.386 215.877,48.446 227.400 C 49.089 229.820,49.977 233.950,50.421 236.577 C 52.479 248.771,61.316 270.024,69.392 282.200 C 71.434 285.280,73.386 288.354,73.728 289.031 C 75.912 293.357,92.795 311.471,103.971 321.481 C 112.028 328.698,129.854 339.127,144.486 345.185 C 150.178 347.542,150.849 348.559,151.089 355.199 C 151.361 362.739,149.942 364.218,144.369 362.202 C 142.736 361.611,139.780 360.650,137.800 360.068 C 133.486 358.798,116.838 350.505,112.400 347.415 C 110.750 346.266,107.780 344.321,105.800 343.092 C 103.820 341.864,100.384 339.361,98.164 337.530 C 95.945 335.698,91.895 332.491,89.164 330.401 C 81.845 324.801,76.982 319.917,71.529 312.691 C 68.911 309.222,65.154 304.542,63.181 302.291 C 61.195 300.026,58.944 296.951,58.138 295.400 C 57.336 293.860,55.890 291.285,54.922 289.677 C 47.055 276.601,38.388 256.321,36.244 245.975 C 35.717 243.431,34.709 239.561,34.005 237.375 C 30.160 225.439,30.188 178.871,34.048 165.914 C 34.722 163.651,35.721 159.645,36.268 157.010 C 37.723 149.999,43.960 133.284,48.437 124.400 C 51.123 119.068,52.751 116.440,61.945 102.600 L 67.790 93.800 80.395 81.159 C 91.581 69.941,93.428 68.256,96.800 66.195 C 98.890 64.918,102.130 62.752,104.000 61.383 C 105.870 60.014,109.020 57.944,111.000 56.783 C 112.980 55.622,115.590 54.008,116.800 53.197 C 118.010 52.387,120.831 50.786,123.068 49.641 C 131.690 45.228,132.899 41.808,130.015 29.996 C 127.741 20.685,128.539 19.819,136.667 22.777 M248.665 38.396 C 247.405 39.893,247.057 42.418,247.274 48.481 C 247.535 55.763,248.321 56.717,257.235 60.562 C 267.037 64.791,276.799 69.865,282.600 73.746 C 298.788 84.577,313.101 97.862,320.795 109.200 C 322.064 111.070,324.043 113.770,325.192 115.200 C 326.341 116.630,328.008 119.060,328.897 120.600 C 329.786 122.140,331.361 124.840,332.396 126.600 C 339.269 138.279,345.686 154.038,347.550 163.816 C 348.013 166.246,348.841 169.731,349.388 171.561 C 352.992 183.602,352.960 217.896,349.332 232.000 C 348.568 234.970,347.607 239.020,347.196 241.000 C 344.186 255.500,331.644 280.883,321.454 293.098 C 319.664 295.244,317.041 298.440,315.624 300.200 C 311.654 305.134,304.699 312.084,299.400 316.414 C 296.760 318.571,293.132 321.565,291.337 323.068 C 284.735 328.595,268.190 338.053,261.713 340.002 C 255.774 341.788,253.829 339.520,252.795 329.600 C 251.813 320.184,249.757 318.335,244.460 322.100 C 235.933 328.161,231.010 331.830,229.143 333.515 C 225.218 337.058,221.937 339.625,217.695 342.470 C 215.384 344.021,211.926 346.695,210.010 348.413 C 208.094 350.131,204.563 353.092,202.163 354.994 C 192.987 362.265,194.159 364.847,209.148 370.383 C 213.553 372.009,221.170 375.250,228.141 378.462 C 233.171 380.780,247.078 386.597,254.904 389.656 C 262.000 392.429,263.290 388.524,260.364 373.131 C 259.036 366.145,260.202 364.027,267.025 361.029 C 279.773 355.427,292.076 348.574,300.400 342.439 C 303.590 340.088,307.707 337.092,309.550 335.782 C 314.752 332.083,332.347 314.384,335.579 309.600 C 336.991 307.510,339.800 303.550,341.821 300.800 C 351.792 287.234,362.917 264.429,365.919 251.400 C 366.375 249.420,367.388 245.769,368.168 243.286 C 372.286 230.196,374.195 202.523,372.189 185.000 C 370.114 166.868,369.661 164.097,367.807 158.200 C 366.838 155.120,365.604 151.160,365.065 149.400 C 360.884 135.762,351.400 115.604,345.211 107.200 C 344.157 105.770,342.118 102.771,340.678 100.536 C 337.959 96.316,335.712 93.636,327.819 85.200 C 308.111 64.136,288.410 50.452,264.800 41.428 C 252.008 36.539,250.470 36.250,248.665 38.396 M257.884 41.439 C 260.038 42.230,263.780 43.588,266.200 44.457 C 274.964 47.602,285.905 53.394,293.600 58.963 C 295.470 60.316,298.260 62.222,299.800 63.198 C 306.102 67.193,314.369 74.724,327.641 88.560 C 334.501 95.710,336.438 97.989,338.190 100.965 C 339.370 102.970,341.477 106.142,342.872 108.014 C 349.730 117.212,358.915 136.862,363.058 151.200 C 363.599 153.070,364.760 156.565,365.640 158.966 C 366.519 161.368,367.413 164.698,367.627 166.366 C 370.921 192.039,371.676 204.300,370.500 213.000 C 370.233 214.980,369.560 220.380,369.006 225.000 C 367.513 237.453,367.265 238.853,365.756 243.315 C 364.996 245.562,364.021 249.007,363.589 250.972 C 362.864 254.269,361.893 256.921,356.325 270.800 C 352.728 279.767,345.807 291.771,339.606 299.800 C 337.907 302.000,335.470 305.510,334.191 307.600 C 330.789 313.160,313.223 330.603,306.400 335.196 C 303.870 336.899,300.180 339.582,298.200 341.158 C 292.761 345.486,275.590 354.994,265.990 358.993 C 258.135 362.265,256.205 365.649,258.000 373.000 C 258.519 375.126,258.960 378.483,259.077 381.200 C 259.388 388.416,258.767 388.669,249.797 384.987 C 246.719 383.724,242.760 382.193,241.000 381.585 C 239.240 380.977,235.182 379.221,231.983 377.682 C 224.041 373.861,214.613 369.798,209.800 368.123 C 198.477 364.181,197.152 361.795,203.600 356.956 C 205.030 355.883,208.090 353.239,210.400 351.080 C 212.710 348.921,215.651 346.490,216.936 345.678 C 222.897 341.906,224.268 340.890,228.429 337.156 C 230.874 334.963,234.792 331.883,237.137 330.313 C 239.482 328.743,242.536 326.590,243.924 325.529 C 248.439 322.078,249.705 322.965,250.416 330.078 C 251.379 339.714,253.415 343.195,258.092 343.199 C 261.296 343.201,272.850 338.100,280.600 333.262 C 288.653 328.234,290.427 326.984,293.800 323.965 C 295.780 322.192,299.110 319.464,301.200 317.903 C 305.907 314.385,312.884 307.432,316.753 302.400 C 318.360 300.310,321.143 296.922,322.938 294.871 C 333.668 282.607,346.840 255.473,349.962 239.200 C 350.406 236.890,351.216 233.525,351.764 231.723 C 353.779 225.095,354.069 221.347,354.063 202.000 C 354.057 181.140,353.685 176.925,351.222 169.839 C 350.771 168.541,350.046 165.359,349.611 162.767 C 349.083 159.626,348.150 156.246,346.810 152.627 C 345.704 149.641,344.800 147.097,344.800 146.975 C 344.800 145.438,337.549 130.656,334.315 125.600 C 333.541 124.390,332.254 122.102,331.456 120.515 C 330.658 118.929,328.864 116.228,327.469 114.515 C 326.074 112.801,323.889 109.779,322.614 107.799 C 317.006 99.095,306.014 87.813,296.400 80.895 C 294.090 79.232,290.220 76.385,287.800 74.568 C 281.375 69.743,269.104 63.057,256.692 57.618 C 250.270 54.804,249.399 53.385,249.666 46.173 C 249.915 39.437,250.896 38.872,257.884 41.439 M195.096 94.145 C 191.587 95.459,191.151 96.668,190.819 105.984 C 190.423 117.098,190.103 117.469,178.439 120.366 C 149.287 127.606,135.102 158.361,148.458 185.371 C 153.667 195.907,170.327 208.100,187.011 213.586 C 215.270 222.879,225.875 236.445,217.853 253.038 C 213.647 261.739,207.843 264.962,196.400 264.953 C 181.826 264.942,172.581 258.400,170.180 246.400 C 168.612 238.568,168.314 238.420,154.000 238.409 C 139.527 238.398,138.794 238.801,138.807 246.759 C 138.839 266.314,155.911 283.849,178.761 287.796 C 186.885 289.199,187.986 290.745,188.377 301.287 C 188.719 310.520,189.740 311.753,197.070 311.784 C 203.509 311.812,204.440 310.468,204.799 300.617 C 205.163 290.646,206.206 289.159,213.779 287.808 C 245.719 282.113,261.367 250.528,246.806 221.146 C 240.992 209.415,229.629 201.231,207.998 193.196 C 183.580 184.125,174.947 175.779,175.731 162.000 C 176.399 150.263,184.131 142.754,196.218 142.106 C 206.841 141.536,214.392 146.881,218.391 157.800 C 222.101 167.933,221.508 167.603,235.985 167.591 C 252.417 167.578,253.091 166.858,249.576 153.059 C 246.175 139.702,240.596 132.216,228.903 125.314 C 225.018 123.022,223.402 122.395,214.790 119.841 C 207.878 117.792,206.808 115.915,206.443 105.200 C 206.167 97.076,205.872 96.006,203.530 94.622 C 201.942 93.684,197.064 93.409,195.096 94.145 M201.353 96.782 C 203.465 97.585,203.780 98.740,204.028 106.581 C 204.396 118.229,206.040 120.210,217.836 123.209 C 230.328 126.386,241.764 136.387,245.499 147.400 C 247.253 152.570,248.848 159.495,248.724 161.401 C 248.502 164.839,248.063 164.977,236.872 165.127 C 223.915 165.301,223.775 165.243,221.348 158.746 C 218.162 150.220,215.337 146.182,210.603 143.389 C 193.146 133.091,172.337 144.930,173.319 164.600 C 173.662 171.461,175.725 175.695,181.445 181.279 C 187.747 187.430,194.835 191.121,211.764 197.064 C 218.512 199.434,230.276 205.813,235.146 209.745 C 244.938 217.648,252.373 237.299,250.047 249.125 C 246.231 268.521,232.330 282.377,213.525 285.529 C 204.287 287.077,202.953 288.846,202.454 300.200 C 202.090 308.481,201.498 309.446,196.853 309.327 C 191.693 309.195,191.081 308.279,190.763 300.218 C 190.328 289.189,188.693 287.105,179.232 285.524 C 165.390 283.210,152.252 274.793,146.659 264.655 C 142.105 256.404,141.462 254.505,141.274 248.757 L 141.109 243.714 142.321 242.357 L 143.533 241.000 153.667 240.896 C 166.057 240.768,167.053 241.149,167.774 246.289 C 169.660 259.738,180.790 267.504,197.600 267.101 C 210.895 266.782,218.553 261.085,222.161 248.827 C 224.403 241.210,220.199 229.573,213.139 223.857 C 207.661 219.421,196.811 214.052,188.735 211.782 C 179.643 209.225,165.298 200.874,158.259 194.039 C 152.082 188.041,150.618 185.553,147.762 176.200 L 145.808 169.800 145.804 163.800 L 145.800 157.800 147.716 152.200 C 152.245 138.962,157.510 132.141,167.212 126.941 C 172.365 124.180,172.719 124.053,179.396 122.577 C 191.945 119.803,193.484 117.682,193.600 103.000 C 193.646 97.190,196.469 94.925,201.353 96.782 " stroke="none" fill="#747474" fill-rule="evenodd"></path><path id="path5" d="M127.001 18.100 C 124.979 19.845,124.976 22.406,126.985 31.693 C 128.963 40.839,128.032 43.562,121.867 46.667 C 117.750 48.740,106.455 55.624,101.400 59.141 C 98.980 60.824,95.932 62.921,94.627 63.800 C 86.457 69.302,67.670 88.615,60.702 98.674 C 45.256 120.970,37.893 136.846,32.054 160.439 C 26.606 182.455,25.937 219.179,30.658 237.124 C 31.219 239.256,32.278 243.430,33.013 246.400 C 36.708 261.341,43.692 277.335,54.073 294.628 C 57.129 299.720,59.280 302.590,71.480 317.862 C 75.511 322.907,81.150 328.168,90.800 335.885 C 98.726 342.224,100.550 343.535,109.600 349.394 C 115.316 353.095,130.501 360.828,135.400 362.533 C 137.600 363.298,140.897 364.482,142.726 365.162 C 152.750 368.890,156.090 365.084,154.451 351.800 C 153.726 345.918,152.799 345.028,143.400 341.179 C 99.078 323.029,62.714 280.356,53.599 235.800 C 52.969 232.720,52.092 228.580,51.650 226.600 C 48.970 214.606,48.848 188.814,51.417 177.600 C 51.745 176.170,52.625 172.030,53.374 168.400 C 54.122 164.770,55.220 160.461,55.813 158.824 C 56.407 157.188,57.320 154.371,57.844 152.564 C 59.658 146.306,66.515 131.533,71.193 123.802 C 75.525 116.644,75.886 116.153,87.519 101.660 C 90.951 97.384,98.772 89.780,103.400 86.220 C 105.380 84.697,108.710 82.076,110.800 80.396 C 115.118 76.925,117.899 75.010,122.870 72.089 C 130.663 67.510,132.298 68.265,134.363 77.400 C 137.728 92.288,140.194 92.472,155.931 79.006 C 158.643 76.685,163.053 73.228,165.731 71.324 C 168.409 69.419,172.892 65.921,175.693 63.551 C 178.494 61.180,182.994 57.680,185.693 55.773 C 196.319 48.263,197.237 45.105,189.700 41.996 C 185.219 40.148,181.690 38.624,175.800 35.994 C 172.940 34.717,167.720 32.467,164.200 30.994 C 160.680 29.520,154.740 26.965,151.000 25.315 C 133.467 17.581,129.118 16.274,127.001 18.100 M135.600 19.493 C 137.690 20.282,143.630 22.771,148.800 25.025 C 153.970 27.279,161.350 30.427,165.200 32.020 C 169.050 33.613,174.270 35.862,176.800 37.017 C 179.330 38.171,183.200 39.860,185.400 40.770 C 196.766 45.468,196.813 47.323,185.761 55.031 C 183.100 56.886,178.690 60.311,175.961 62.640 C 173.233 64.969,168.637 68.561,165.750 70.623 C 162.862 72.684,158.273 76.286,155.551 78.626 C 139.919 92.068,137.914 91.656,134.190 74.225 C 133.019 68.743,130.328 67.406,125.541 69.927 C 121.318 72.151,115.306 76.122,111.388 79.275 C 109.195 81.040,105.690 83.761,103.600 85.322 C 98.583 89.069,88.116 99.583,84.409 104.600 C 82.783 106.800,80.507 109.722,79.351 111.093 C 73.151 118.450,67.520 128.211,60.713 143.400 C 58.448 148.453,53.771 163.152,52.998 167.643 C 52.643 169.709,51.919 173.116,51.391 175.214 C 48.023 188.578,48.096 214.138,51.543 228.806 C 52.188 231.553,53.014 235.420,53.377 237.400 C 53.740 239.380,55.096 244.171,56.390 248.048 C 65.957 276.699,79.813 296.718,106.160 319.952 C 113.443 326.374,132.447 337.432,144.400 342.203 C 152.897 345.594,153.656 346.573,153.922 354.490 C 154.295 365.548,151.988 367.936,143.800 364.968 C 142.260 364.410,138.930 363.232,136.400 362.350 C 131.051 360.484,116.004 352.885,110.200 349.117 C 108.000 347.688,104.940 345.711,103.400 344.723 C 100.606 342.930,93.772 337.669,86.200 331.481 C 79.657 326.134,74.609 320.984,69.263 314.200 C 66.489 310.680,62.758 305.988,60.971 303.773 C 50.997 291.404,37.357 262.948,33.758 247.000 C 33.212 244.580,32.340 241.160,31.819 239.400 C 28.305 227.513,27.054 199.714,29.129 179.600 C 32.525 146.680,49.650 109.367,72.368 85.386 C 81.548 75.697,91.045 66.841,95.371 63.937 C 97.335 62.619,100.575 60.404,102.571 59.015 C 106.942 55.974,118.451 48.986,122.026 47.202 C 128.790 43.826,129.586 41.435,127.414 31.017 C 124.627 17.650,125.914 15.839,135.600 19.493 M248.908 36.485 C 246.990 37.410,246.400 39.704,246.402 46.226 C 246.406 55.992,247.703 57.934,256.400 61.187 C 279.247 69.734,306.498 90.486,320.000 109.620 C 321.622 111.919,323.733 114.770,324.689 115.954 C 325.646 117.139,327.168 119.389,328.071 120.954 C 328.974 122.520,330.560 125.240,331.595 127.000 C 338.340 138.468,344.385 153.197,346.553 163.445 C 347.106 166.060,348.089 170.270,348.738 172.800 C 352.163 186.164,352.002 217.718,348.436 231.865 C 347.780 234.469,346.860 238.372,346.391 240.537 C 341.114 264.948,320.446 298.006,300.000 314.738 C 297.690 316.628,294.521 319.278,292.957 320.627 C 287.440 325.384,278.457 331.157,269.728 335.553 C 257.010 341.959,254.874 341.065,253.595 328.800 C 252.681 320.037,250.520 317.521,245.994 319.947 C 243.893 321.074,230.722 331.027,226.400 334.754 C 224.310 336.556,220.530 339.446,218.000 341.176 C 215.470 342.906,211.240 346.185,208.600 348.462 C 205.960 350.740,202.630 353.486,201.200 354.565 C 190.935 362.310,192.404 364.895,211.200 372.169 C 213.730 373.149,220.120 375.872,225.400 378.222 C 237.037 383.400,237.191 383.466,248.267 387.983 C 258.610 392.202,260.019 392.443,261.820 390.303 L 262.912 389.006 262.641 384.203 C 262.493 381.561,262.096 377.960,261.760 376.200 C 259.922 366.581,260.709 364.739,268.000 361.599 C 279.644 356.585,292.424 349.399,301.324 342.861 C 304.814 340.298,308.944 337.265,310.502 336.123 C 316.933 331.409,332.946 315.114,336.876 309.285 C 338.020 307.588,340.462 304.174,342.303 301.698 C 352.171 288.422,363.380 265.551,366.758 251.800 C 367.245 249.820,368.166 246.490,368.806 244.400 C 370.573 238.626,371.398 233.551,373.453 215.800 C 375.215 200.580,372.833 171.330,368.761 158.200 C 361.934 136.185,355.098 120.344,347.613 109.200 C 337.477 94.108,337.981 94.751,327.556 83.615 C 309.373 64.191,288.592 49.638,267.200 41.346 C 253.785 36.147,251.092 35.431,248.908 36.485 M259.200 38.903 C 288.347 49.719,307.127 62.392,329.079 86.058 C 337.093 94.697,338.003 95.788,340.722 100.000 C 341.929 101.870,343.951 104.840,345.216 106.600 C 352.011 116.059,361.279 135.652,365.462 149.400 C 365.998 151.160,367.235 155.210,368.211 158.400 C 370.821 166.924,373.149 185.007,373.464 199.200 C 373.729 211.129,371.327 233.916,368.987 241.666 C 368.433 243.500,367.354 247.392,366.589 250.316 C 365.824 253.240,364.389 257.679,363.399 260.181 C 362.410 262.683,361.600 264.831,361.600 264.955 C 361.600 265.481,356.522 276.955,354.523 280.947 C 351.644 286.697,346.068 295.693,341.917 301.287 C 340.075 303.769,337.412 307.510,335.999 309.600 C 332.318 315.045,315.178 332.178,309.000 336.587 C 306.580 338.315,302.608 341.226,300.173 343.058 C 292.991 348.459,280.604 355.364,268.000 360.992 C 260.483 364.348,259.400 366.200,260.750 373.389 C 263.688 389.024,262.304 392.966,254.904 390.050 C 246.725 386.826,235.072 381.959,229.400 379.398 C 220.181 375.234,212.386 371.910,208.937 370.672 C 194.227 365.390,192.530 362.019,201.197 355.298 C 203.281 353.682,206.905 350.680,209.251 348.627 C 211.597 346.574,215.650 343.440,218.258 341.662 C 220.866 339.884,224.890 336.786,227.200 334.776 C 229.510 332.767,232.930 330.027,234.800 328.688 C 236.670 327.350,239.640 325.144,241.400 323.787 C 249.565 317.490,251.871 318.473,253.046 328.751 C 254.360 340.247,256.388 342.020,264.408 338.684 C 272.118 335.477,285.659 327.375,291.478 322.487 C 293.415 320.859,296.710 318.164,298.800 316.496 C 320.082 299.514,342.119 264.711,346.990 240.388 C 347.363 238.524,348.188 235.020,348.823 232.600 C 351.034 224.174,351.269 221.777,351.491 205.453 C 351.766 185.237,351.406 181.077,348.278 168.400 C 347.708 166.090,346.893 162.662,346.467 160.781 C 344.585 152.484,336.862 133.983,332.782 128.000 C 332.407 127.450,331.160 125.290,330.011 123.200 C 328.863 121.110,326.441 117.420,324.629 115.000 C 322.818 112.580,320.455 109.340,319.379 107.800 C 306.736 89.705,281.317 70.809,255.061 59.987 C 247.943 57.053,247.000 55.486,247.000 46.600 C 247.000 35.786,248.407 34.898,259.200 38.903 M193.608 93.700 C 190.669 95.201,190.278 96.442,189.990 105.184 C 189.625 116.241,189.355 116.584,178.926 119.251 C 166.613 122.400,158.463 127.476,151.862 136.106 C 138.705 153.309,140.109 180.881,154.895 195.668 C 161.425 202.198,176.158 210.955,186.103 214.218 C 209.784 221.988,218.968 230.192,218.992 243.600 C 219.015 256.293,211.346 263.557,197.553 263.909 C 182.190 264.301,173.570 258.327,170.845 245.400 C 169.251 237.833,167.965 237.198,154.245 237.202 C 139.238 237.207,137.754 238.075,137.851 246.800 C 138.074 266.799,154.278 283.690,177.907 288.554 C 186.433 290.308,186.850 290.849,187.235 300.650 C 187.662 311.546,189.420 313.378,198.798 312.707 C 204.299 312.314,205.235 310.762,205.616 301.400 C 206.042 290.933,206.721 290.031,215.400 288.400 C 223.718 286.837,234.993 281.025,240.600 275.412 C 249.645 266.358,254.910 249.574,252.795 236.544 C 249.319 215.127,237.308 203.235,208.038 192.231 C 187.012 184.327,179.192 178.114,176.949 167.531 C 173.231 149.992,191.002 137.151,207.541 145.425 C 212.565 147.939,215.316 151.612,217.978 159.363 C 221.180 168.690,220.793 168.491,235.779 168.512 C 253.396 168.537,254.361 167.498,250.468 152.698 C 245.989 135.675,235.464 124.875,218.641 120.040 C 208.401 117.097,207.894 116.426,207.591 105.400 C 207.347 96.550,206.878 95.090,203.800 93.600 C 201.355 92.416,196.018 92.469,193.608 93.700 M201.769 93.583 C 205.925 94.547,206.523 95.919,206.827 105.200 C 207.203 116.668,207.900 117.614,218.050 120.432 C 235.237 125.202,245.523 135.810,250.046 153.431 C 253.589 167.234,252.666 168.122,234.999 167.923 C 221.368 167.770,221.586 167.878,218.826 159.932 C 215.876 151.438,212.992 147.513,207.858 145.007 C 192.364 137.444,175.974 146.798,176.006 163.184 C 176.032 176.291,184.131 183.803,207.916 192.778 C 234.186 202.690,244.404 211.284,249.935 228.121 C 259.042 255.843,243.969 281.814,215.273 287.844 C 209.341 289.091,209.425 289.063,207.983 290.275 C 205.746 292.158,205.471 293.178,205.188 300.653 C 204.800 310.869,203.809 312.228,196.800 312.166 C 189.325 312.100,188.364 310.878,187.988 300.962 C 187.611 291.028,186.595 289.580,179.021 288.189 C 165.789 285.758,151.962 277.851,146.400 269.535 C 140.945 261.380,138.746 255.373,138.516 248.000 C 138.215 238.332,138.730 238.000,154.000 238.000 C 168.262 238.000,168.861 238.293,170.451 246.046 C 173.063 258.781,183.335 265.523,198.811 264.663 C 217.413 263.629,226.109 244.733,214.955 229.582 C 210.973 224.172,201.048 218.628,187.102 214.023 C 180.884 211.969,167.344 204.994,162.400 201.297 C 152.301 193.745,148.436 188.302,145.146 177.000 L 143.400 171.000 143.416 163.800 C 143.464 141.799,156.434 125.634,178.589 119.961 C 189.850 117.078,190.030 116.865,190.453 105.948 C 190.899 94.421,193.435 91.650,201.769 93.583 " stroke="none" fill="#848484" fill-rule="evenodd"></path><path id="path6" d="M126.000 15.076 C 122.882 16.688,122.531 19.951,124.400 29.935 C 126.506 41.182,126.240 41.966,119.000 45.840 C 99.785 56.121,85.581 67.238,69.479 84.600 C 38.531 117.969,21.709 167.915,25.561 215.000 C 28.303 248.524,41.023 282.830,59.289 305.962 C 61.303 308.513,64.672 312.760,66.776 315.400 C 79.738 331.669,100.916 348.172,122.841 359.088 C 138.988 367.128,149.409 370.303,153.177 368.330 C 156.289 366.701,156.600 365.600,156.600 356.200 C 156.600 344.570,156.154 343.929,145.032 339.590 C 118.080 329.076,92.198 307.619,75.564 282.000 C 63.991 264.175,57.727 247.755,53.363 223.800 C 46.786 187.703,58.637 141.050,81.671 112.355 C 83.722 109.801,86.512 106.291,87.870 104.555 C 91.270 100.212,101.297 90.447,106.541 86.373 C 108.929 84.518,112.349 81.857,114.141 80.459 C 117.769 77.630,126.018 72.584,127.663 72.188 C 130.317 71.549,131.266 73.114,133.008 81.007 C 136.245 95.676,139.379 95.571,157.800 80.183 C 160.220 78.161,164.270 75.013,166.800 73.188 C 169.330 71.362,173.830 67.854,176.800 65.392 C 179.770 62.930,184.630 59.159,187.600 57.011 C 195.461 51.327,197.200 49.401,197.200 46.381 C 197.200 42.991,196.303 42.370,183.600 36.968 C 164.526 28.857,158.313 26.199,150.000 22.592 C 131.585 14.602,128.679 13.692,126.000 15.076 M137.425 18.348 C 140.711 19.670,145.740 21.776,148.600 23.027 C 153.476 25.161,165.791 30.443,183.400 37.951 C 193.286 42.166,194.374 42.738,195.257 44.187 C 197.331 47.587,195.322 50.432,186.397 56.729 C 183.865 58.515,179.283 62.068,176.214 64.624 C 173.145 67.180,168.614 70.713,166.144 72.474 C 163.675 74.235,159.617 77.398,157.127 79.503 C 139.272 94.596,136.842 94.415,133.240 77.725 C 131.321 68.837,129.641 68.728,117.908 76.728 C 101.303 88.049,90.447 98.683,77.527 116.283 C 67.730 129.627,57.821 152.224,54.584 168.600 C 54.018 171.460,53.281 174.871,52.946 176.181 C 48.412 193.882,50.836 226.247,58.356 248.430 C 72.722 290.805,105.681 325.541,146.336 341.152 C 154.818 344.410,155.800 345.971,155.800 356.200 C 155.800 369.085,153.450 370.304,138.800 365.014 C 113.100 355.733,84.031 335.384,68.213 315.600 C 57.494 302.194,56.125 300.337,52.533 294.331 C 29.709 256.176,22.231 219.268,28.028 173.400 C 29.168 164.383,35.079 144.154,40.010 132.400 C 54.821 97.089,86.106 63.361,119.600 46.594 C 127.084 42.847,127.697 41.239,125.560 30.962 C 122.346 15.510,124.548 13.168,137.425 18.348 M247.159 34.505 C 244.562 36.235,244.200 37.642,244.200 46.000 C 244.200 57.230,245.238 58.917,254.490 62.726 C 297.012 80.232,327.961 112.937,342.001 155.200 C 343.061 158.390,344.228 162.530,344.596 164.400 C 344.963 166.270,345.704 169.510,346.242 171.600 C 350.217 187.050,350.110 216.367,346.019 232.784 C 345.386 235.323,344.656 238.480,344.395 239.800 C 341.919 252.355,329.874 277.525,320.659 289.400 C 308.187 305.472,294.790 317.955,279.991 327.292 C 267.666 335.069,260.118 338.117,257.978 336.180 C 256.950 335.250,256.153 332.360,255.611 327.600 C 254.511 317.942,251.269 314.470,245.997 317.305 C 243.810 318.481,231.067 328.105,225.000 333.164 C 222.580 335.182,218.744 338.115,216.476 339.683 C 214.208 341.251,210.428 344.177,208.076 346.186 C 205.724 348.195,202.090 351.159,200.000 352.772 C 187.749 362.229,188.995 365.926,206.703 372.646 C 209.871 373.848,220.398 378.329,228.200 381.796 C 233.915 384.335,246.101 389.450,254.494 392.831 C 265.094 397.102,267.056 393.048,263.595 374.027 C 262.323 367.032,262.737 366.475,272.675 361.814 C 285.528 355.785,293.577 351.177,301.835 345.119 C 304.623 343.074,308.726 340.064,310.952 338.432 C 315.806 334.873,333.549 317.333,336.881 312.800 C 344.347 302.642,348.017 297.398,350.619 293.168 C 360.159 277.668,366.588 261.918,371.997 240.800 C 377.920 217.674,377.276 179.683,370.573 156.800 C 352.940 96.612,313.012 54.214,255.533 34.644 C 251.659 33.325,248.997 33.281,247.159 34.505 M257.560 36.412 C 286.577 46.826,306.645 59.883,327.661 82.025 C 347.046 102.449,360.449 125.653,368.194 152.200 C 368.965 154.840,370.040 158.486,370.585 160.301 C 372.741 167.491,375.284 189.726,375.309 201.600 C 375.336 214.529,372.821 234.927,370.026 244.440 C 369.161 247.388,368.088 251.241,367.642 253.003 C 364.131 266.891,353.505 288.244,342.642 303.244 C 340.508 306.190,337.736 310.040,336.481 311.800 C 333.400 316.122,316.105 333.403,311.200 337.060 C 292.612 350.920,290.840 351.974,266.514 363.644 C 262.298 365.666,261.462 367.768,262.548 373.611 C 266.337 393.989,264.647 396.084,249.521 389.761 C 245.494 388.078,241.030 386.258,239.600 385.717 C 238.170 385.176,235.110 383.863,232.800 382.799 C 225.907 379.625,212.908 374.029,208.200 372.209 C 190.365 365.313,189.149 362.225,200.786 353.386 C 202.208 352.305,205.448 349.646,207.986 347.476 C 210.523 345.307,214.439 342.273,216.687 340.736 C 218.935 339.198,223.075 336.015,225.887 333.661 C 249.377 314.003,252.796 313.402,254.797 328.577 C 255.880 336.790,256.775 338.234,260.590 337.917 C 264.843 337.565,282.020 327.962,290.135 321.400 C 299.708 313.659,301.868 311.778,306.417 307.224 C 329.206 284.406,343.837 255.432,349.070 222.757 C 350.956 210.982,349.907 181.959,347.217 171.478 C 346.585 169.015,345.764 165.482,345.392 163.627 C 341.512 144.234,326.010 116.325,309.068 98.230 C 295.891 84.156,274.743 69.805,256.326 62.442 C 250.331 60.045,248.079 58.605,246.614 56.233 L 245.400 54.266 245.267 47.078 C 245.028 34.186,246.880 32.580,257.560 36.412 M193.671 90.872 C 189.359 91.836,188.097 94.694,187.764 104.248 C 187.419 114.119,187.031 114.829,181.131 116.361 C 154.756 123.210,140.706 139.702,140.716 163.800 C 140.727 188.850,155.746 205.899,187.600 217.019 C 198.461 220.811,206.007 224.647,210.251 228.536 C 221.950 239.254,217.673 258.409,202.880 261.550 C 188.868 264.525,175.990 257.940,173.327 246.438 C 170.745 235.286,171.011 235.445,154.724 235.278 C 137.116 235.098,135.595 235.938,135.603 245.846 C 135.619 267.380,152.353 285.388,177.200 290.611 C 184.443 292.133,184.862 292.741,185.204 302.200 C 185.603 313.228,187.133 314.884,197.000 314.964 C 205.664 315.035,207.216 313.222,207.635 302.542 C 208.020 292.722,208.282 292.372,216.800 290.245 C 247.059 282.689,262.019 256.043,252.417 226.804 C 246.888 209.966,235.184 200.151,208.800 190.228 C 186.056 181.674,178.781 175.171,178.806 163.416 C 178.830 152.125,185.775 145.200,197.074 145.200 C 207.451 145.200,212.769 149.813,216.579 162.120 C 219.237 170.706,219.780 170.933,237.200 170.734 C 251.243 170.574,252.416 170.198,254.018 165.344 C 255.168 161.860,252.477 148.897,249.296 142.600 C 243.318 130.767,233.614 122.461,221.242 118.587 C 209.720 114.980,209.912 115.212,209.797 104.800 C 209.709 96.716,209.312 94.912,207.152 92.752 C 204.954 90.554,198.881 89.708,193.671 90.872 M204.815 92.500 C 208.065 94.139,208.539 95.602,208.805 104.800 C 209.121 115.742,209.427 116.191,218.200 118.607 C 235.705 123.428,247.108 135.024,251.656 152.631 C 255.713 168.332,254.402 169.769,236.000 169.788 C 220.069 169.804,220.104 169.821,217.196 160.836 C 213.860 150.532,209.826 146.308,201.665 144.579 C 188.326 141.752,177.817 150.156,177.882 163.600 C 177.940 175.670,185.761 182.743,208.200 191.020 C 237.167 201.706,248.913 212.970,253.645 234.600 C 254.461 238.329,254.354 249.562,253.471 252.800 C 247.542 274.547,235.667 285.604,213.525 289.995 C 208.059 291.079,207.088 292.782,206.789 301.802 C 206.445 312.188,205.019 314.000,197.188 314.000 C 188.018 314.000,186.477 312.232,186.032 301.200 C 185.649 291.711,185.474 291.481,177.302 289.638 C 152.354 284.013,136.381 266.662,136.402 245.210 C 136.410 237.152,138.291 236.200,154.200 236.200 C 169.232 236.200,169.904 236.489,171.622 243.683 C 173.023 249.551,173.591 251.095,175.278 253.621 C 182.548 264.508,203.402 266.599,212.538 257.356 C 217.118 252.723,219.084 245.130,217.389 238.621 C 214.849 228.872,207.131 222.869,189.000 216.537 C 167.795 209.133,152.122 197.934,146.544 186.200 C 133.310 158.363,147.234 126.510,176.000 118.812 C 188.898 115.360,188.434 115.875,188.790 104.600 C 189.150 93.183,190.369 91.600,198.800 91.600 C 202.392 91.600,203.300 91.736,204.815 92.500 " stroke="none" fill="#bcbcbc" fill-rule="evenodd"></path><path id="path7" d="M124.437 13.261 C 120.873 15.715,120.517 18.382,122.360 28.816 C 124.407 40.399,124.273 40.883,118.085 44.245 C 81.528 64.102,52.929 95.027,37.482 131.400 C 15.670 182.762,19.180 242.976,46.725 290.000 C 62.359 316.689,80.414 335.306,107.469 352.632 C 120.490 360.971,144.361 371.200,150.799 371.200 C 157.072 371.200,159.002 367.310,158.725 355.229 C 158.465 343.948,157.558 342.673,146.733 338.381 C 100.307 319.972,66.077 278.891,56.425 230.000 C 49.234 193.578,55.925 156.180,75.263 124.695 C 78.994 118.621,78.836 118.840,85.969 109.803 C 95.022 98.333,107.988 86.432,120.015 78.551 C 129.046 72.634,129.539 72.825,131.612 83.057 C 134.702 98.314,138.964 98.086,158.800 81.603 C 161.110 79.684,165.070 76.623,167.600 74.802 C 170.130 72.981,174.540 69.565,177.400 67.212 C 180.260 64.859,185.120 61.082,188.200 58.820 C 197.025 52.338,199.200 49.877,199.200 46.376 C 199.200 42.111,197.976 41.155,186.000 36.066 C 180.830 33.869,173.180 30.602,169.000 28.804 C 127.436 10.932,127.690 11.021,124.437 13.261 M136.224 16.802 C 139.071 17.934,145.270 20.540,150.000 22.592 C 158.313 26.199,164.526 28.857,183.600 36.968 C 196.303 42.370,197.200 42.991,197.200 46.381 C 197.200 49.401,195.461 51.327,187.600 57.011 C 184.630 59.159,179.770 62.930,176.800 65.392 C 173.830 67.854,169.330 71.362,166.800 73.188 C 164.270 75.013,160.220 78.161,157.800 80.183 C 139.379 95.571,136.245 95.676,133.008 81.007 C 131.266 73.114,130.317 71.549,127.663 72.188 C 126.018 72.584,117.769 77.630,114.141 80.459 C 112.349 81.857,108.929 84.518,106.541 86.373 C 101.297 90.447,91.270 100.212,87.870 104.555 C 86.512 106.291,83.722 109.801,81.671 112.355 C 58.637 141.050,46.786 187.703,53.363 223.800 C 57.727 247.755,63.991 264.175,75.564 282.000 C 92.198 307.619,118.080 329.076,145.032 339.590 C 156.154 343.929,156.600 344.570,156.600 356.200 C 156.600 370.335,154.337 371.634,139.182 366.197 C 112.711 356.702,83.171 335.978,66.776 315.400 C 64.672 312.760,61.303 308.513,59.289 305.962 C 29.258 267.930,17.614 208.827,30.264 158.632 C 37.319 130.633,51.348 104.149,69.479 84.600 C 85.581 67.238,99.785 56.121,119.000 45.840 C 126.240 41.966,126.506 41.182,124.400 29.935 C 121.528 14.598,123.940 11.919,136.224 16.802 M246.363 32.531 C 242.673 34.479,241.230 41.319,242.330 51.657 C 243.103 58.932,244.835 60.744,255.000 64.909 C 277.303 74.048,299.417 89.960,312.663 106.400 C 316.141 110.717,324.359 121.956,325.082 123.385 C 325.420 124.053,326.952 126.724,328.486 129.320 C 348.617 163.397,352.996 208.950,339.931 248.400 C 328.470 283.010,302.345 313.864,269.965 331.033 C 259.254 336.711,258.794 336.537,257.245 326.200 C 255.683 315.776,252.239 312.404,246.029 315.221 C 244.039 316.124,232.487 324.751,224.600 331.225 C 221.740 333.573,217.510 336.810,215.200 338.418 C 212.890 340.027,208.840 343.168,206.200 345.399 C 203.560 347.630,199.478 350.932,197.128 352.736 C 184.733 362.257,186.750 366.818,206.800 374.610 C 208.670 375.336,215.240 378.129,221.400 380.816 C 227.560 383.502,235.390 386.862,238.800 388.283 C 242.210 389.703,246.440 391.465,248.200 392.198 C 257.304 395.989,258.751 396.502,260.800 396.670 C 267.148 397.190,268.288 393.121,266.025 378.032 C 264.528 368.055,264.585 367.801,268.800 365.710 C 270.230 365.000,275.000 362.643,279.400 360.471 C 283.800 358.299,289.740 355.129,292.600 353.427 C 297.469 350.529,299.645 349.011,311.083 340.535 C 345.874 314.754,371.452 268.550,376.814 221.800 C 385.421 146.751,345.049 73.531,277.400 41.495 C 260.274 33.384,250.237 30.485,246.363 32.531 M255.533 34.644 C 327.427 59.122,374.345 122.913,376.268 198.800 C 376.553 210.061,374.369 231.539,371.997 240.800 C 366.588 261.918,360.159 277.668,350.619 293.168 C 348.017 297.398,344.347 302.642,336.881 312.800 C 333.549 317.333,315.806 334.873,310.952 338.432 C 308.726 340.064,304.623 343.074,301.835 345.119 C 293.577 351.177,285.528 355.785,272.675 361.814 C 262.737 366.475,262.323 367.032,263.595 374.027 C 267.056 393.048,265.094 397.102,254.494 392.831 C 246.101 389.450,233.915 384.335,228.200 381.796 C 220.398 378.329,209.871 373.848,206.703 372.646 C 188.995 365.926,187.749 362.229,200.000 352.772 C 202.090 351.159,205.724 348.195,208.076 346.186 C 210.428 344.177,214.208 341.251,216.476 339.683 C 218.744 338.115,222.580 335.182,225.000 333.164 C 231.067 328.105,243.810 318.481,245.997 317.305 C 251.269 314.470,254.511 317.942,255.611 327.600 C 256.820 338.221,258.469 338.968,268.900 333.619 C 288.528 323.554,305.225 309.289,320.659 289.400 C 329.874 277.525,341.919 252.355,344.395 239.800 C 344.656 238.480,345.386 235.323,346.019 232.784 C 350.110 216.367,350.217 187.050,346.242 171.600 C 345.704 169.510,344.963 166.270,344.596 164.400 C 341.655 149.436,331.532 128.594,319.146 112.000 C 302.582 89.808,281.797 73.968,254.490 62.726 C 245.238 58.917,244.200 57.230,244.200 46.000 C 244.200 34.088,246.660 31.623,255.533 34.644 M194.112 88.805 C 187.925 89.708,186.293 92.600,185.986 103.200 C 185.687 113.551,185.959 113.150,177.718 115.383 C 154.126 121.775,140.044 138.552,138.916 161.612 C 137.653 187.429,152.799 206.086,184.500 217.763 C 186.645 218.554,190.155 219.850,192.300 220.645 C 207.790 226.384,214.270 232.631,215.073 242.600 C 215.916 253.054,208.297 260.389,196.600 260.385 C 183.992 260.381,176.777 254.893,174.443 243.531 C 172.478 233.967,171.504 233.451,155.092 233.274 C 135.636 233.065,133.789 234.118,133.811 245.400 C 133.857 268.348,149.944 285.943,176.800 292.418 C 179.876 293.160,180.848 293.581,181.900 294.627 L 183.200 295.920 183.212 300.260 C 183.252 314.144,185.289 316.600,196.771 316.600 C 207.387 316.600,209.600 314.032,209.600 301.714 C 209.600 294.498,210.060 293.891,216.800 292.201 C 245.010 285.127,260.709 262.274,256.235 234.799 C 252.583 212.373,240.417 200.466,208.662 188.235 C 186.241 179.599,180.992 174.885,181.007 163.400 C 181.020 153.438,184.936 148.563,194.065 147.144 C 204.542 145.515,211.570 150.686,214.652 162.289 C 217.298 172.251,218.061 172.614,236.293 172.567 L 249.187 172.533 251.474 171.364 C 256.731 168.675,257.411 161.763,253.653 149.200 C 248.860 133.178,236.198 120.751,220.000 116.173 C 211.861 113.872,211.863 113.876,211.598 103.619 C 211.247 90.053,207.471 86.854,194.112 88.805 M203.623 90.842 C 208.428 91.873,209.687 94.717,209.797 104.800 C 209.912 115.212,209.720 114.980,221.242 118.587 C 233.614 122.461,243.318 130.767,249.296 142.600 C 252.477 148.897,255.168 161.860,254.018 165.344 C 252.416 170.198,251.243 170.574,237.200 170.734 C 219.780 170.933,219.237 170.706,216.579 162.120 C 212.769 149.813,207.451 145.200,197.074 145.200 C 185.775 145.200,178.830 152.125,178.806 163.416 C 178.781 175.171,186.056 181.674,208.800 190.228 C 235.184 200.151,246.888 209.966,252.417 226.804 C 262.019 256.043,247.059 282.689,216.800 290.245 C 208.282 292.372,208.020 292.722,207.635 302.542 C 207.216 313.222,205.664 315.035,197.000 314.964 C 187.133 314.884,185.603 313.228,185.204 302.200 C 184.862 292.741,184.443 292.133,177.200 290.611 C 152.353 285.388,135.619 267.380,135.603 245.846 C 135.595 235.938,137.116 235.098,154.724 235.278 C 171.011 235.445,170.745 235.286,173.327 246.438 C 175.990 257.940,188.868 264.525,202.880 261.550 C 217.673 258.409,221.950 239.254,210.251 228.536 C 206.007 224.647,198.461 220.811,187.600 217.019 C 155.746 205.899,140.727 188.850,140.716 163.800 C 140.706 139.702,154.756 123.210,181.131 116.361 C 187.031 114.829,187.419 114.119,187.764 104.248 C 188.036 96.444,188.428 94.772,190.461 92.739 C 192.645 90.555,198.410 89.724,203.623 90.842 " stroke="none" fill="#c4c4c4" fill-rule="evenodd"></path></g></svg>